<svg width="894" height="1000" viewBox="0 0 894 1000" fill="none" xmlns="http://www.w3.org/2000/svg">
<g clip-path="url(#clip0_7066_155)">
<path d="M873.04 571.66C873.04 808.217 681.261 999.996 444.704 999.996C208.147 999.996 16.3877 808.217 16.3877 571.66C16.3877 335.103 208.147 143.344 444.704 143.344C681.261 143.344 873.04 335.123 873.04 571.68V571.66Z" fill="url(#paint0_linear_7066_155)"/>
<path d="M299.001 975.672C297.803 975.672 296.828 974.697 296.828 973.499C296.828 972.301 297.803 971.326 299.001 971.326C448.765 971.326 570.608 792.035 570.608 571.684C570.608 351.332 448.765 172.041 299.001 172.041C297.803 172.041 296.828 171.066 296.828 169.868C296.828 168.67 297.803 167.695 299.001 167.695C451.162 167.695 574.953 348.936 574.953 571.704C574.953 794.472 451.162 975.713 299.001 975.713V975.672Z" fill="url(#paint1_linear_7066_155)"/>
<path d="M281.07 743.502C254.325 743.502 228.231 741.167 203.172 736.476C111.81 719.296 45.3049 672.529 15.88 604.744C15.3926 603.647 15.9003 602.368 17.0172 601.881C18.1137 601.414 19.3931 601.901 19.8805 603.018C48.6961 669.422 114.085 715.295 203.984 732.191C294.188 749.147 398.201 734.892 496.852 692.064C595.504 649.237 676.955 582.995 726.18 505.524C775.241 428.316 786.37 349.22 757.554 282.837C757.067 281.74 757.574 280.461 758.691 279.973C759.788 279.506 761.067 279.994 761.555 281.111C790.959 348.875 779.709 429.393 729.855 507.859C680.164 586.061 598.042 652.892 498.599 696.044C426.529 727.338 351.555 743.482 281.09 743.482L281.07 743.502Z" fill="url(#paint2_linear_7066_155)"/>
<path d="M19.9415 612.111C18.8247 612.111 17.8702 611.259 17.7687 610.121C12.0624 543.352 51.9251 476.684 130.006 422.444C207.436 368.65 312.789 333.661 426.631 323.934C540.188 314.227 649.176 330.96 733.531 371.067C818.272 411.356 868.106 470.409 873.832 537.361C873.934 538.559 873.04 539.615 871.842 539.717C870.644 539.818 869.588 538.925 869.487 537.727C857.912 402.36 659.39 308.379 426.976 328.26C313.886 337.926 209.284 372.63 132.463 425.997C55.7226 479.324 16.5097 544.57 22.0738 609.736C22.1753 610.934 21.2818 611.99 20.0837 612.091C20.0228 612.091 19.9619 612.091 19.9009 612.091L19.9415 612.111Z" fill="url(#paint3_linear_7066_155)"/>
<path d="M496.304 913.897C438.754 913.897 379.315 902.992 321.42 879.923C215.255 837.644 129.985 761.35 81.3296 665.034C32.6333 568.636 26.4194 463.771 63.8453 369.749C64.292 368.632 65.5511 368.084 66.668 368.531C67.7848 368.977 68.3331 370.236 67.8864 371.353C30.9276 464.217 37.0603 567.804 85.2083 663.064C133.397 758.406 217.854 833.988 323.044 875.861C540.086 962.268 778.775 876.552 855.15 684.772C855.597 683.655 856.856 683.107 857.972 683.554C859.089 684.001 859.638 685.26 859.191 686.376C802.352 829.155 656.689 913.876 496.345 913.876L496.304 913.897Z" fill="url(#paint4_linear_7066_155)"/>
<path d="M635.143 662.984C570.445 662.984 499.452 652.221 428.336 631.244C324.608 600.641 232.942 551.904 170.214 494.029C107.099 435.788 80.761 375.172 96.0522 323.328C96.3974 322.171 97.5955 321.521 98.753 321.866C99.9105 322.211 100.56 323.409 100.215 324.567C85.4113 374.725 111.323 433.778 173.158 490.841C235.399 548.269 326.456 596.641 429.555 627.081C532.654 657.501 635.387 666.314 718.829 651.876C801.742 637.539 855.556 602.002 870.36 551.843C870.705 550.686 871.903 550.036 873.06 550.381C874.218 550.726 874.868 551.924 874.523 553.082C859.231 604.926 804.199 641.539 719.56 656.161C693.12 660.73 664.771 662.984 635.103 663.004L635.143 662.984Z" fill="url(#paint5_linear_7066_155)"/>
<path d="M194.399 331.917C260.659 331.917 314.373 278.203 314.373 211.943C314.373 145.683 260.659 91.9688 194.399 91.9688C128.139 91.9688 74.4253 145.683 74.4253 211.943C74.4253 278.203 128.139 331.917 194.399 331.917Z" fill="url(#paint6_linear_7066_155)"/>
<path d="M393.632 196.816C393.632 88.1326 305.519 0 196.816 0C88.1123 0 0 88.1326 0 196.816C0 227.906 7.22931 257.311 20.0634 283.466C77.3698 418.548 186.175 516.043 196.085 524.754V525.384C196.085 525.384 196.207 525.282 196.45 525.059C196.694 525.262 196.816 525.384 196.816 525.384V524.754C206.523 516.225 310.962 422.61 369.141 291.954C384.737 263.748 393.632 231.338 393.632 196.816ZM196.816 109.191C245.228 109.191 284.461 148.424 284.461 196.816C284.461 245.208 245.228 284.461 196.816 284.461C148.404 284.461 109.171 245.228 109.171 196.816C109.171 148.404 148.404 109.191 196.816 109.191Z" fill="url(#paint7_linear_7066_155)"/>
<path d="M777.577 549.512C816.292 549.512 847.677 518.128 847.677 479.412C847.677 440.697 816.292 409.312 777.577 409.312C738.862 409.312 707.477 440.697 707.477 479.412C707.477 518.128 738.862 549.512 777.577 549.512Z" fill="url(#paint8_linear_7066_155)"/>
<path d="M893.997 470.558C893.997 407.038 842.499 355.539 778.978 355.539C715.458 355.539 663.959 407.038 663.959 470.558C663.959 488.733 668.183 505.913 675.676 521.184C709.162 600.117 772.744 657.099 778.531 662.196V662.561C778.531 662.561 778.613 662.5 778.755 662.378C778.897 662.5 778.978 662.561 778.978 662.561V662.196C784.644 657.22 845.687 602.513 879.681 526.159C888.799 509.69 893.997 490.723 893.997 470.558ZM778.978 419.344C807.266 419.344 830.192 442.27 830.192 470.558C830.192 498.846 807.266 521.773 778.978 521.773C750.69 521.773 727.764 498.846 727.764 470.558C727.764 442.27 750.69 419.344 778.978 419.344Z" fill="url(#paint9_linear_7066_155)"/>
<path d="M313.297 834.413C342.086 834.413 365.425 811.074 365.425 782.284C365.425 753.495 342.086 730.156 313.297 730.156C284.507 730.156 261.168 753.495 261.168 782.284C261.168 811.074 284.507 834.413 313.297 834.413Z" fill="url(#paint10_linear_7066_155)"/>
<path d="M399.866 775.708C399.866 728.494 361.587 690.195 314.353 690.195C267.119 690.195 228.84 728.494 228.84 775.708C228.84 789.212 231.987 802.006 237.552 813.358C262.448 872.045 309.723 914.405 314.028 918.203V918.487C314.028 918.487 314.089 918.446 314.19 918.345C314.292 918.426 314.353 918.487 314.353 918.487V918.203C318.577 914.507 363.963 873.832 389.225 817.053C396.007 804.808 399.866 790.715 399.866 775.729V775.708ZM314.353 737.633C335.391 737.633 352.429 754.69 352.429 775.708C352.429 796.726 335.371 813.784 314.353 813.784C293.335 813.784 276.277 796.726 276.277 775.708C276.277 754.69 293.335 737.633 314.353 737.633Z" fill="url(#paint11_linear_7066_155)"/>
</g>
<defs>
<linearGradient id="paint0_linear_7066_155" x1="441.881" y1="1663.49" x2="446.328" y2="-52.3756" gradientUnits="userSpaceOnUse">
<stop stop-color="#0A1A2C"/>
<stop offset="0.5" stop-color="#203E6A"/>
<stop offset="1" stop-color="#4A7499"/>
</linearGradient>
<linearGradient id="paint1_linear_7066_155" x1="453.842" y1="1045.49" x2="366.116" y2="-334.701" gradientUnits="userSpaceOnUse">
<stop stop-color="#386E9C"/>
<stop offset="1" stop-color="white"/>
</linearGradient>
<linearGradient id="paint2_linear_7066_155" x1="432.763" y1="1046.83" x2="345.037" y2="-333.36" gradientUnits="userSpaceOnUse">
<stop stop-color="#386E9C"/>
<stop offset="1" stop-color="white"/>
</linearGradient>
<linearGradient id="paint3_linear_7066_155" x1="475.692" y1="1044.08" x2="387.966" y2="-336.085" gradientUnits="userSpaceOnUse">
<stop stop-color="#386E9C"/>
<stop offset="1" stop-color="white"/>
</linearGradient>
<linearGradient id="paint4_linear_7066_155" x1="477.946" y1="1043.94" x2="390.22" y2="-336.225" gradientUnits="userSpaceOnUse">
<stop stop-color="#386E9C"/>
<stop offset="1" stop-color="white"/>
</linearGradient>
<linearGradient id="paint5_linear_7066_155" x1="520.51" y1="1041.24" x2="432.784" y2="-338.925" gradientUnits="userSpaceOnUse">
<stop stop-color="#386E9C"/>
<stop offset="1" stop-color="white"/>
</linearGradient>
<linearGradient id="paint6_linear_7066_155" x1="206.157" y1="738.362" x2="191.719" y2="92.8216" gradientUnits="userSpaceOnUse">
<stop stop-color="#386E9C"/>
<stop offset="1" stop-color="white"/>
</linearGradient>
<linearGradient id="paint7_linear_7066_155" x1="281.374" y1="1527.39" x2="150.881" y2="-525.871" gradientUnits="userSpaceOnUse">
<stop stop-color="#FF2A64"/>
<stop offset="1" stop-color="#FFAF48"/>
</linearGradient>
<linearGradient id="paint8_linear_7066_155" x1="784.461" y1="787.024" x2="776.013" y2="409.78" gradientUnits="userSpaceOnUse">
<stop stop-color="#386E9C"/>
<stop offset="1" stop-color="white"/>
</linearGradient>
<linearGradient id="paint9_linear_7066_155" x1="828.405" y1="1248.11" x2="752.152" y2="48.2326" gradientUnits="userSpaceOnUse">
<stop stop-color="#FF2A64"/>
<stop offset="1" stop-color="#FFAF48"/>
</linearGradient>
<linearGradient id="paint10_linear_7066_155" x1="318.414" y1="1011" x2="312.139" y2="730.522" gradientUnits="userSpaceOnUse">
<stop stop-color="#386E9C"/>
<stop offset="1" stop-color="white"/>
</linearGradient>
<linearGradient id="paint11_linear_7066_155" x1="351.109" y1="1353.85" x2="294.391" y2="461.721" gradientUnits="userSpaceOnUse">
<stop stop-color="#FF2A64"/>
<stop offset="1" stop-color="#FFAF48"/>
</linearGradient>
<clipPath id="clip0_7066_155">
<rect width="893.997" height="1000" fill="white"/>
</clipPath>
</defs>
</svg>
