<svg width="1000" height="966" viewBox="0 0 1000 966" fill="none" xmlns="http://www.w3.org/2000/svg">
<g clip-path="url(#clip0_7837_182)">
<path d="M984.97 899.797H15.0301C6.72919 899.797 0 906.526 0 914.827C0 923.128 6.72919 929.857 15.0301 929.857H984.97C993.271 929.857 1000 923.128 1000 914.827C1000 906.526 993.271 899.797 984.97 899.797Z" fill="url(#paint0_linear_7837_182)"/>
<path d="M515.031 789.578H484.971V899.799H515.031V789.578Z" fill="url(#paint1_linear_7837_182)"/>
<path d="M498.999 965.935C526.668 965.935 549.099 943.504 549.099 915.835C549.099 888.165 526.668 865.734 498.999 865.734C471.329 865.734 448.898 888.165 448.898 915.835C448.898 943.504 471.329 965.935 498.999 965.935Z" fill="url(#paint2_linear_7837_182)"/>
<path d="M893.788 394.79C893.788 612.826 717.035 789.579 498.999 789.579C280.962 789.579 104.209 612.826 104.209 394.79C104.209 176.754 280.962 0 498.999 0C717.035 0 893.788 176.754 893.788 394.79Z" fill="url(#paint3_linear_7837_182)"/>
<path d="M364.69 767.151C363.587 767.151 362.686 766.25 362.686 765.147C362.686 764.045 363.587 763.143 364.69 763.143C502.726 763.143 615.03 597.893 615.03 394.787C615.03 191.68 502.726 26.4299 364.69 26.4299C363.587 26.4299 362.686 25.5281 362.686 24.4259C362.686 23.3237 363.587 22.4219 364.69 22.4219C504.93 22.4219 619.038 189.456 619.038 394.787C619.038 600.117 504.93 767.151 364.69 767.151Z" fill="url(#paint4_linear_7837_182)"/>
<path d="M348.156 553.167C323.507 553.167 299.459 551.023 276.353 546.674C192.144 530.842 130.842 487.736 103.728 425.271C103.287 424.249 103.748 423.067 104.77 422.626C105.792 422.185 106.974 422.646 107.415 423.668C133.988 484.871 194.249 527.155 277.094 542.726C360.241 558.357 456.092 545.211 547.014 505.752C637.936 466.293 713.006 405.231 758.377 333.828C803.587 262.666 813.868 189.78 787.295 128.578C786.854 127.556 787.315 126.374 788.337 125.933C789.359 125.492 790.541 125.953 790.982 126.975C818.096 189.44 807.716 263.648 761.764 335.973C715.972 408.057 640.281 469.64 548.617 509.42C482.184 538.257 413.106 553.147 348.156 553.147V553.167Z" fill="url(#paint5_linear_7837_182)"/>
<path d="M107.494 432.058C106.472 432.058 105.59 431.277 105.49 430.214C100.24 368.671 136.973 307.229 208.937 257.229C280.3 207.649 377.394 175.405 482.324 166.447C586.973 157.509 687.434 172.92 765.19 209.894C843.306 247.028 889.218 301.457 894.508 363.16C894.608 364.263 893.787 365.225 892.685 365.325C891.582 365.425 890.62 364.603 890.52 363.501C879.859 238.732 696.893 152.118 482.665 170.435C378.416 179.333 282.023 211.337 211.222 260.515C140.48 309.653 104.348 369.814 109.478 429.854C109.578 430.956 108.757 431.918 107.655 432.018C107.594 432.018 107.534 432.018 107.474 432.018L107.494 432.058Z" fill="url(#paint6_linear_7837_182)"/>
<path d="M546.553 710.221C493.507 710.221 438.737 700.161 385.351 678.918C287.495 639.96 208.898 569.62 164.048 480.862C119.158 392.024 113.427 295.371 147.936 208.698C148.337 207.676 149.519 207.175 150.541 207.576C151.563 207.976 152.064 209.159 151.663 210.181C117.595 295.772 123.266 391.263 167.615 479.059C212.024 566.934 289.88 636.594 386.814 675.191C586.854 754.83 806.874 675.832 877.254 499.059C877.655 498.037 878.838 497.536 879.86 497.936C880.882 498.337 881.383 499.52 880.982 500.542C828.597 632.125 694.329 710.221 546.533 710.221H546.553Z" fill="url(#paint7_linear_7837_182)"/>
<path d="M674.509 478.955C614.869 478.955 549.459 469.035 483.908 449.696C388.296 421.48 303.807 376.57 245.992 323.243C187.815 269.556 163.527 213.684 177.635 165.909C177.956 164.847 179.058 164.245 180.12 164.546C181.182 164.867 181.783 165.969 181.483 167.031C167.835 213.264 191.723 267.692 248.717 320.278C306.092 373.203 390.02 417.793 485.05 445.849C580.08 473.885 674.769 482.001 751.683 468.694C828.096 455.468 877.695 422.722 891.342 376.49C891.663 375.428 892.765 374.827 893.827 375.127C894.89 375.448 895.491 376.55 895.19 377.612C881.102 425.388 830.381 459.135 752.365 472.622C727.996 476.831 701.863 478.915 674.529 478.915L674.509 478.955Z" fill="url(#paint8_linear_7837_182)"/>
<path d="M776.694 831.661H220.341C201.563 831.661 186.373 816.47 186.373 797.693V394.687C186.373 375.909 201.563 360.719 220.341 360.719H776.694C795.471 360.719 810.662 375.909 810.662 394.687V797.693C810.662 816.47 795.471 831.661 776.694 831.661Z" fill="url(#paint9_linear_7837_182)"/>
<path d="M461.562 773.046H656.893C663.246 773.046 668.476 768.077 668.476 762.044C668.476 756.012 663.246 751.062 656.893 751.062H461.562C455.21 751.062 449.959 756.032 449.959 762.044C449.959 768.057 455.21 773.046 461.562 773.046Z" fill="url(#paint10_linear_7837_182)"/>
<path d="M343.747 779.141C353.185 779.141 360.841 771.486 360.841 762.047C360.841 752.608 353.185 744.953 343.747 744.953C334.308 744.953 326.652 752.608 326.652 762.047C326.652 771.486 334.308 779.141 343.747 779.141Z" fill="url(#paint11_linear_7837_182)"/>
<path d="M402.344 779.141C411.783 779.141 419.438 771.486 419.438 762.047C419.438 752.608 411.783 744.953 402.344 744.953C392.905 744.953 385.25 752.608 385.25 762.047C385.25 771.486 392.905 779.141 402.344 779.141Z" fill="url(#paint12_linear_7837_182)"/>
<path d="M727.456 494.992H270.542C259.474 494.992 250.502 503.964 250.502 515.032V683.369C250.502 694.437 259.474 703.409 270.542 703.409H727.456C738.524 703.409 747.496 694.437 747.496 683.369V515.032C747.496 503.964 738.524 494.992 727.456 494.992Z" fill="url(#paint13_linear_7837_182)"/>
<path d="M344.088 649.306C343.146 649.306 342.405 649.025 341.844 648.464C341.283 647.803 341.002 647.021 341.002 646.079V554.476C341.002 553.454 341.283 552.652 341.844 552.091C342.405 551.43 343.146 551.109 344.088 551.109H375.792C389.92 551.109 400.1 554.296 406.373 560.648C412.645 566.921 415.872 576.4 416.052 589.125C416.152 591.831 416.192 595.478 416.192 600.067C416.192 604.656 416.152 608.344 416.052 611.149C415.872 620.027 414.409 627.282 411.703 632.893C409.078 638.404 404.93 642.532 399.218 645.238C393.507 647.943 385.932 649.306 376.493 649.306H344.088ZM375.792 637.662C382.345 637.662 387.535 636.781 391.363 634.997C395.291 633.133 398.096 630.268 399.78 626.44C401.563 622.512 402.545 617.222 402.725 610.588C402.906 604.977 403.006 601.47 403.006 600.067C403.006 598.564 402.906 595.117 402.725 589.687C402.545 580.328 400.301 573.514 395.992 569.206C391.784 564.817 384.81 562.612 375.09 562.612H354.188V637.662H375.792Z" fill="url(#paint14_linear_7837_182)"/>
<path d="M468.717 649.306C467.795 649.306 467.034 649.025 466.473 648.464C465.911 647.803 465.631 647.021 465.631 646.079V554.476C465.631 553.454 465.911 552.652 466.473 552.091C467.034 551.43 467.795 551.109 468.717 551.109H474.889C475.831 551.109 476.533 551.29 476.994 551.67C477.475 552.051 477.935 552.512 478.396 553.073L525.39 625.458V554.476C525.39 553.454 525.671 552.652 526.232 552.091C526.893 551.43 527.695 551.109 528.617 551.109H534.929C535.972 551.109 536.753 551.43 537.314 552.091C537.976 552.652 538.296 553.454 538.296 554.476V645.939C538.296 646.881 537.976 647.663 537.314 648.324C536.753 648.985 536.012 649.306 535.07 649.306H528.757C527.174 649.306 526.052 648.644 525.39 647.342L478.396 575.658V646.079C478.396 647.021 478.076 647.803 477.414 648.464C476.853 649.025 476.112 649.306 475.17 649.306H468.717Z" fill="url(#paint15_linear_7837_182)"/>
<path d="M622.244 650.705C614.568 650.705 607.895 649.483 602.184 647.058C596.572 644.633 592.264 641.447 589.278 637.519C586.372 633.491 584.829 629.202 584.648 624.613C584.648 623.871 584.929 623.21 585.49 622.649C586.051 622.088 586.753 621.807 587.594 621.807H594.468C596.151 621.807 597.314 622.749 597.975 624.613C598.817 628.541 601.202 631.948 605.129 634.853C609.157 637.659 614.849 639.062 622.244 639.062C630.2 639.062 636.131 637.659 640.059 634.853C643.987 632.048 645.951 628.16 645.951 623.21C645.951 620.024 644.969 617.419 643.005 615.354C641.141 613.29 638.276 611.527 634.448 610.024C630.701 608.441 625.049 606.517 617.474 604.272C610.28 602.208 604.528 600.024 600.22 597.679C596.011 595.334 592.825 592.489 590.681 589.122C588.536 585.655 587.454 581.306 587.454 576.076C587.454 570.845 588.817 566.537 591.522 562.609C594.228 558.581 598.155 555.455 603.306 553.21C608.456 550.865 614.528 549.703 621.542 549.703C628.556 549.703 635.049 551.006 640.2 553.631C645.43 556.156 649.418 559.383 652.123 563.31C654.829 567.138 656.292 571.026 656.472 574.954C656.472 575.795 656.192 576.497 655.63 577.058C655.069 577.619 654.368 577.9 653.526 577.9H646.512C645.771 577.9 645.069 577.659 644.408 577.198C643.747 576.737 643.286 576.036 643.005 575.094C642.444 571.066 640.2 567.759 636.272 565.134C632.344 562.509 627.434 561.206 621.542 561.206C615.19 561.206 610.139 562.469 606.392 564.994C602.644 567.419 600.781 571.066 600.781 575.936C600.781 579.202 601.622 581.867 603.306 583.932C605.089 585.996 607.755 587.819 611.302 589.403C614.949 590.986 620.24 592.809 627.153 594.873C635.109 597.118 641.322 599.362 645.811 601.607C650.4 603.851 653.807 606.657 656.051 610.024C658.296 613.29 659.418 617.559 659.418 622.789C659.418 631.587 656.051 638.461 649.318 643.411C642.685 648.28 633.646 650.705 622.244 650.705Z" fill="url(#paint16_linear_7837_182)"/>
<path d="M810.662 427.512V394.687C810.662 375.909 795.471 360.719 776.694 360.719H220.341C201.563 360.719 186.373 375.909 186.373 394.687V427.512H810.662Z" fill="url(#paint17_linear_7837_182)"/>
<path d="M223.486 407.293C229.819 407.293 234.949 402.163 234.949 395.83C234.949 389.497 229.819 384.367 223.486 384.367C217.154 384.367 212.023 389.497 212.023 395.83C212.023 402.163 217.154 407.293 223.486 407.293Z" fill="url(#paint18_linear_7837_182)"/>
<path d="M264.188 407.293C270.52 407.293 275.65 402.163 275.65 395.83C275.65 389.497 270.52 384.367 264.188 384.367C257.855 384.367 252.725 389.497 252.725 395.83C252.725 402.163 257.855 407.293 264.188 407.293Z" fill="url(#paint19_linear_7837_182)"/>
<path d="M304.891 407.293C311.223 407.293 316.354 402.163 316.354 395.83C316.354 389.497 311.223 384.367 304.891 384.367C298.558 384.367 293.428 389.497 293.428 395.83C293.428 402.163 298.558 407.293 304.891 407.293Z" fill="url(#paint20_linear_7837_182)"/>
</g>
<defs>
<linearGradient id="paint0_linear_7837_182" x1="496.513" y1="1057.39" x2="508.397" y2="570.538" gradientUnits="userSpaceOnUse">
<stop stop-color="#0A1A2C"/>
<stop offset="0.5" stop-color="#203E6A"/>
<stop offset="1" stop-color="#4A7499"/>
</linearGradient>
<linearGradient id="paint1_linear_7837_182" x1="498.317" y1="1014.27" x2="502.426" y2="599.177" gradientUnits="userSpaceOnUse">
<stop stop-color="#0A1A2C"/>
<stop offset="0.5" stop-color="#203E6A"/>
<stop offset="1" stop-color="#4A7499"/>
</linearGradient>
<linearGradient id="paint2_linear_7837_182" x1="498.999" y1="1110.1" x2="498.999" y2="685.354" gradientUnits="userSpaceOnUse">
<stop stop-color="#FF2A64"/>
<stop offset="1" stop-color="#FFAF48"/>
</linearGradient>
<linearGradient id="paint3_linear_7837_182" x1="496.393" y1="1401.12" x2="500.482" y2="-180.401" gradientUnits="userSpaceOnUse">
<stop stop-color="#0A1A2C"/>
<stop offset="0.5" stop-color="#203E6A"/>
<stop offset="1" stop-color="#4A7499"/>
</linearGradient>
<linearGradient id="paint4_linear_7837_182" x1="507.395" y1="831.5" x2="426.553" y2="-440.604" gradientUnits="userSpaceOnUse">
<stop stop-color="#386E9C"/>
<stop offset="1" stop-color="white"/>
</linearGradient>
<linearGradient id="paint5_linear_7837_182" x1="487.976" y1="832.746" x2="407.134" y2="-439.358" gradientUnits="userSpaceOnUse">
<stop stop-color="#386E9C"/>
<stop offset="1" stop-color="white"/>
</linearGradient>
<linearGradient id="paint6_linear_7837_182" x1="527.554" y1="830.214" x2="446.693" y2="-441.89" gradientUnits="userSpaceOnUse">
<stop stop-color="#386E9C"/>
<stop offset="1" stop-color="white"/>
</linearGradient>
<linearGradient id="paint7_linear_7837_182" x1="529.639" y1="830.081" x2="448.777" y2="-442.004" gradientUnits="userSpaceOnUse">
<stop stop-color="#386E9C"/>
<stop offset="1" stop-color="white"/>
</linearGradient>
<linearGradient id="paint8_linear_7837_182" x1="568.857" y1="827.592" x2="488.016" y2="-444.512" gradientUnits="userSpaceOnUse">
<stop stop-color="#386E9C"/>
<stop offset="1" stop-color="white"/>
</linearGradient>
<linearGradient id="paint9_linear_7837_182" x1="522.485" y1="1475.07" x2="491.263" y2="330.218" gradientUnits="userSpaceOnUse">
<stop stop-color="#386E9C"/>
<stop offset="1" stop-color="white"/>
</linearGradient>
<linearGradient id="paint10_linear_7837_182" x1="558.316" y1="843.908" x2="560.52" y2="642.425" gradientUnits="userSpaceOnUse">
<stop stop-color="#0A1A2C"/>
<stop offset="0.5" stop-color="#203E6A"/>
<stop offset="1" stop-color="#4A7499"/>
</linearGradient>
<linearGradient id="paint11_linear_7837_182" x1="345.069" y1="834.272" x2="342.865" y2="714.252" gradientUnits="userSpaceOnUse">
<stop stop-color="#0A1A2C"/>
<stop offset="0.5" stop-color="#203E6A"/>
<stop offset="1" stop-color="#4A7499"/>
</linearGradient>
<linearGradient id="paint12_linear_7837_182" x1="403.106" y1="853.931" x2="402.004" y2="722.909" gradientUnits="userSpaceOnUse">
<stop stop-color="#FF2A64"/>
<stop offset="1" stop-color="#FFAF48"/>
</linearGradient>
<linearGradient id="paint13_linear_7837_182" x1="498.999" y1="1239.48" x2="498.999" y2="491.806" gradientUnits="userSpaceOnUse">
<stop stop-color="#FF2A64"/>
<stop offset="1" stop-color="#FFAF48"/>
</linearGradient>
<linearGradient id="paint14_linear_7837_182" x1="378.597" y1="873.414" x2="378.597" y2="400.007" gradientUnits="userSpaceOnUse">
<stop stop-color="#0A1A2C"/>
<stop offset="0.5" stop-color="#203E6A"/>
<stop offset="1" stop-color="#4A7499"/>
</linearGradient>
<linearGradient id="paint15_linear_7837_182" x1="501.964" y1="873.414" x2="501.964" y2="400.007" gradientUnits="userSpaceOnUse">
<stop stop-color="#0A1A2C"/>
<stop offset="0.5" stop-color="#203E6A"/>
<stop offset="1" stop-color="#4A7499"/>
</linearGradient>
<linearGradient id="paint16_linear_7837_182" x1="622.043" y1="873.411" x2="622.043" y2="400.004" gradientUnits="userSpaceOnUse">
<stop stop-color="#0A1A2C"/>
<stop offset="0.5" stop-color="#203E6A"/>
<stop offset="1" stop-color="#4A7499"/>
</linearGradient>
<linearGradient id="paint17_linear_7837_182" x1="-146.259" y1="543.979" x2="-131.141" y2="258.084" gradientUnits="userSpaceOnUse">
<stop stop-color="#FF2A64"/>
<stop offset="0.0745029" stop-color="#FF3562"/>
<stop offset="0.711" stop-color="#FF8C4F"/>
<stop offset="1" stop-color="#FFAE48"/>
</linearGradient>
<linearGradient id="paint18_linear_7837_182" x1="226.252" y1="612.984" x2="222.685" y2="332.864" gradientUnits="userSpaceOnUse">
<stop stop-color="#386E9C"/>
<stop offset="1" stop-color="white"/>
</linearGradient>
<linearGradient id="paint19_linear_7837_182" x1="266.953" y1="612.463" x2="263.386" y2="332.343" gradientUnits="userSpaceOnUse">
<stop stop-color="#386E9C"/>
<stop offset="1" stop-color="white"/>
</linearGradient>
<linearGradient id="paint20_linear_7837_182" x1="307.636" y1="611.942" x2="304.089" y2="331.822" gradientUnits="userSpaceOnUse">
<stop stop-color="#386E9C"/>
<stop offset="1" stop-color="white"/>
</linearGradient>
<clipPath id="clip0_7837_182">
<rect width="1000" height="965.932" fill="white"/>
</clipPath>
</defs>
</svg>
