<svg width="338" height="338" viewBox="0 0 338 338" fill="none" xmlns="http://www.w3.org/2000/svg">
<path d="M288.307 168.6C288.307 165.79 286.621 162.98 283.811 161.856L180.403 116.334C173.097 112.962 164.105 112.962 156.799 116.334L53.3913 161.856C50.5813 162.98 48.8953 165.79 48.8953 168.6V271.446C48.8953 274.256 50.5813 277.066 53.3913 278.19L156.799 323.712C164.105 327.084 173.097 327.084 180.403 323.712L283.811 278.19C286.621 277.066 288.307 274.256 288.307 271.446V168.6Z" fill="url(#paint0_linear_9507_73478)"/>
<path opacity="0.3" d="M283.811 227.61L180.403 273.132C173.097 276.504 164.105 276.504 156.799 273.132L53.3913 227.61C50.5813 226.486 48.8953 223.676 48.8953 220.866V271.446C48.8953 274.256 50.5813 277.066 53.3913 278.19L156.799 323.712C164.105 327.084 173.097 327.084 180.403 323.712L283.811 278.19C286.621 277.066 288.307 274.256 288.307 271.446V220.866C288.307 223.676 286.621 226.486 283.811 227.61Z" fill="#5A8AB7"/>
<path opacity="0.3" d="M180.402 116.334L283.81 161.856C289.43 164.666 289.43 172.534 283.81 175.344L180.402 220.866C173.096 224.238 164.104 224.238 156.798 220.866L53.3903 175.344C47.7703 172.534 47.7703 164.666 53.3903 161.856L156.798 116.334C164.104 112.962 172.534 112.962 180.402 116.334Z" fill="#5A8AB7"/>
<path d="M180.404 173.097L234.356 196.701L180.404 220.305C173.098 223.677 164.106 223.677 156.8 220.305L102.848 196.701L156.8 173.097C164.106 169.725 172.536 169.725 180.404 173.097Z" fill="#5A8AB7"/>
<path d="M144.434 161.855H102.284C92.7301 161.855 85.4241 154.549 85.4241 144.995V97.7875C85.4241 94.4155 87.6721 92.1675 91.0441 92.1675C94.4161 92.1675 96.6641 94.4155 96.6641 97.7875V144.995C96.6641 148.367 98.9121 150.615 102.284 150.615H144.434C147.806 150.615 150.054 152.863 150.054 156.235C150.054 159.607 147.244 161.855 144.434 161.855Z" fill="#5A8AB7"/>
<path d="M209.065 191.642C205.693 191.642 203.445 189.394 203.445 186.022V124.202C203.445 114.648 210.751 107.342 220.305 107.342H255.149C258.521 107.342 260.769 105.094 260.769 101.722V80.3661C260.769 76.9941 263.017 74.7461 266.389 74.7461C269.761 74.7461 272.009 76.9941 272.009 80.3661V101.722C272.009 111.276 264.703 118.582 255.149 118.582H220.305C216.933 118.582 214.685 120.83 214.685 124.202V186.022C214.685 189.394 212.437 191.642 209.065 191.642Z" fill="url(#paint1_linear_9507_73478)"/>
<path d="M141.622 97.7878V51.1419C141.622 44.9599 136.564 39.9019 130.382 39.9019H50.5776C44.3956 39.9019 39.3376 44.9599 39.3376 51.1419V97.7878C39.3376 103.97 44.3956 109.028 50.5776 109.028H130.382C136.564 109.028 141.622 103.97 141.622 97.7878Z" fill="url(#paint2_linear_9507_73478)"/>
<path d="M74.1827 96.6644C72.4967 96.6644 71.3727 96.1024 70.2487 94.9784C68.0007 92.7304 68.0007 89.3584 70.2487 87.1104L83.1748 74.1844L71.3727 62.3824C69.1247 60.1344 69.1247 56.7624 71.3727 54.5144C73.6207 52.2664 76.9928 52.2664 79.2408 54.5144L94.9767 70.2504C96.1007 71.3744 96.6627 72.4984 96.6627 74.1844C96.6627 75.8704 96.1007 76.9944 94.9767 78.1184L78.1167 94.9784C76.9927 96.1024 75.3067 96.6644 74.1827 96.6644Z" fill="white"/>
<path d="M112.397 97.2256H97.7848C94.4128 97.2256 92.1648 94.9776 92.1648 91.6056C92.1648 88.2336 94.4128 85.9856 97.7848 85.9856H112.397C115.769 85.9856 118.017 88.2336 118.017 91.6056C118.017 94.9776 115.207 97.2256 112.397 97.2256Z" fill="white"/>
<path d="M317.53 69.127V22.481C317.53 16.299 312.472 11.241 306.29 11.241H226.486C220.304 11.241 215.246 16.299 215.246 22.481V69.127C215.246 75.309 220.304 80.367 226.486 80.367H306.29C312.472 80.367 317.53 75.309 317.53 69.127Z" fill="url(#paint3_linear_9507_73478)"/>
<path d="M250.091 67.4405C248.405 67.4405 247.281 66.8785 246.157 65.7545C243.909 63.5065 243.909 60.1345 246.157 57.8865L259.083 44.9605L246.719 33.7205C244.471 31.4725 244.471 28.1005 246.719 25.8525C248.967 23.6045 252.339 23.6045 254.587 25.8525L270.323 41.5885C272.571 43.8365 272.571 47.2085 270.323 49.4565L253.463 66.3165C252.901 66.8785 251.215 67.4405 250.091 67.4405Z" fill="white"/>
<path d="M288.305 68.002H273.693C270.321 68.002 268.073 65.754 268.073 62.382C268.073 59.01 270.321 56.762 273.693 56.762H288.305C291.677 56.762 293.925 59.01 293.925 62.382C293.925 65.754 291.115 68.002 288.305 68.002Z" fill="#5A8AB7"/>
<defs>
<linearGradient id="paint0_linear_9507_73478" x1="48.5811" y1="219.922" x2="288.085" y2="219.922" gradientUnits="userSpaceOnUse">
<stop stop-color="#0B2546"/>
<stop offset="0.3213" stop-color="#10294C"/>
<stop offset="0.7475" stop-color="#1A335D"/>
<stop offset="1" stop-color="#223C6A"/>
</linearGradient>
<linearGradient id="paint1_linear_9507_73478" x1="237.688" y1="191.692" x2="237.688" y2="74.6624" gradientUnits="userSpaceOnUse">
<stop stop-color="#F2AD5C"/>
<stop offset="1" stop-color="#ED7F5E"/>
</linearGradient>
<linearGradient id="paint2_linear_9507_73478" x1="90.2262" y1="27.9268" x2="90.2262" y2="153.787" gradientUnits="userSpaceOnUse">
<stop stop-color="#F2AD5C"/>
<stop offset="1" stop-color="#ED7F5E"/>
</linearGradient>
<linearGradient id="paint3_linear_9507_73478" x1="215.074" y1="45.7624" x2="317.358" y2="45.7624" gradientUnits="userSpaceOnUse">
<stop stop-color="#0B2546"/>
<stop offset="0.3213" stop-color="#10294C"/>
<stop offset="0.7475" stop-color="#1A335D"/>
<stop offset="1" stop-color="#223C6A"/>
</linearGradient>
</defs>
</svg>
