<svg width="1020" height="975" viewBox="0 0 1020 975" fill="none" xmlns="http://www.w3.org/2000/svg">
<path d="M801.556 511.354V879.059C801.556 879.059 677.204 974.999 509.649 974.999C404.661 974.621 302.484 941.039 217.742 879.059V511.354H801.556Z" fill="url(#paint0_linear_2844_175)"/>
<path d="M801.556 511.355V655.655C610.843 710.305 408.672 710.71 217.742 656.823V510.869L801.556 511.355Z" fill="url(#paint1_linear_2844_175)"/>
<path d="M1019.41 406.367C1019.41 513.399 791.239 600.095 509.744 600.095C228.248 600.095 0.0726732 513.399 0.0726732 406.367C-0.0242244 405.396 -0.0242244 404.418 0.0726732 403.447C4.06207 488.976 230.68 557.963 509.549 557.963C788.417 557.963 1015.03 488.976 1019.12 403.447C1019.41 404.42 1019.41 405.394 1019.41 406.367Z" fill="url(#paint2_linear_2844_175)"/>
<path d="M1019.32 403.445C1015.23 488.974 788.614 557.961 509.746 557.961C230.877 557.961 3.77242 488.974 0.269531 403.445C0.53783 394.844 2.28251 386.353 5.42684 378.342C41.1368 284.64 253.354 212.928 509.746 212.928C766.137 212.928 978.352 284.834 1014.06 378.342C1017.24 386.347 1019.02 394.838 1019.32 403.445Z" fill="url(#paint3_linear_2844_175)"/>
<path d="M432.768 427.177C472.364 413.59 473.554 312.5 435.425 201.388C397.296 90.2753 334.287 11.216 294.691 24.8036C255.095 38.3912 253.906 139.481 292.035 250.593C330.164 361.706 393.172 440.765 432.768 427.177Z" fill="url(#paint4_linear_2844_175)"/>
<path d="M411.579 365.422C433.283 357.974 429.456 289.51 403.031 212.504C376.605 135.498 337.589 79.1094 315.885 86.5573C294.181 94.0052 298.008 162.469 324.433 239.475C350.858 316.481 389.875 372.87 411.579 365.422Z" fill="url(#paint5_linear_2844_175)"/>
<path d="M697.714 250.39C735.843 139.278 734.653 38.1896 695.057 24.602C655.462 11.0145 592.453 90.0726 554.324 201.185C516.195 312.298 517.384 413.388 556.98 426.976C596.576 440.563 659.585 361.503 697.714 250.39Z" fill="url(#paint6_linear_2844_175)"/>
<path d="M665.32 239.274C691.745 162.268 695.572 93.8055 673.868 86.3576C652.164 78.9098 613.148 135.297 586.722 212.303C560.297 289.309 556.47 357.774 578.174 365.222C599.878 372.67 638.895 316.28 665.32 239.274Z" fill="url(#paint7_linear_2844_175)"/>
<path d="M509.747 288.83C509.747 288.83 331.197 279.1 234.965 406.858C234.965 406.858 323.315 452.786 509.747 452.786C696.178 452.786 784.528 406.858 784.528 406.858C688.296 279.295 509.747 288.83 509.747 288.83Z" fill="url(#paint8_linear_2844_175)"/>
<defs>
<linearGradient id="paint0_linear_2844_175" x1="507.719" y1="1334.1" x2="509.63" y2="405.422" gradientUnits="userSpaceOnUse">
<stop stop-color="#0A1A2C"/>
<stop offset="0.5" stop-color="#203E6A"/>
<stop offset="1" stop-color="#4A7499"/>
</linearGradient>
<linearGradient id="paint1_linear_2844_175" x1="509.649" y1="766.013" x2="509.649" y2="296.201" gradientUnits="userSpaceOnUse">
<stop stop-color="#0A1A2C"/>
<stop offset="0.5" stop-color="#203E6A"/>
<stop offset="1" stop-color="#4A7499"/>
</linearGradient>
<linearGradient id="paint2_linear_2844_175" x1="487.052" y1="1435.32" x2="492.715" y2="355.536" gradientUnits="userSpaceOnUse">
<stop stop-color="#386E9C"/>
<stop offset="1" stop-color="white"/>
</linearGradient>
<linearGradient id="paint3_linear_2844_175" x1="506.423" y1="825.196" x2="507.03" y2="134.094" gradientUnits="userSpaceOnUse">
<stop stop-color="#0A1A2C"/>
<stop offset="0.5" stop-color="#203E6A"/>
<stop offset="1" stop-color="#4A7499"/>
</linearGradient>
<linearGradient id="paint4_linear_2844_175" x1="726.919" y1="1184.01" x2="-12.6435" y2="-296.049" gradientUnits="userSpaceOnUse">
<stop stop-color="#FF2A64"/>
<stop offset="1" stop-color="#FFAF48"/>
</linearGradient>
<linearGradient id="paint5_linear_2844_175" x1="485.436" y1="581.496" x2="298.913" y2="21.2154" gradientUnits="userSpaceOnUse">
<stop stop-color="#0A1A2C"/>
<stop offset="0.5" stop-color="#203E6A"/>
<stop offset="1" stop-color="#4A7499"/>
</linearGradient>
<linearGradient id="paint6_linear_2844_175" x1="1000.86" y1="257.78" x2="435.092" y2="74.3024" gradientUnits="userSpaceOnUse">
<stop stop-color="#FF2A64"/>
<stop offset="1" stop-color="#FFAF48"/>
</linearGradient>
<linearGradient id="paint7_linear_2844_175" x1="725.878" y1="261.087" x2="568.487" y2="206.949" gradientUnits="userSpaceOnUse">
<stop stop-color="#0A1A2C"/>
<stop offset="0.5" stop-color="#203E6A"/>
<stop offset="1" stop-color="#4A7499"/>
</linearGradient>
<linearGradient id="paint8_linear_2844_175" x1="627.829" y1="765.806" x2="618.673" y2="121.922" gradientUnits="userSpaceOnUse">
<stop stop-color="#FF2A64"/>
<stop offset="1" stop-color="#FFAF48"/>
</linearGradient>
</defs>
</svg>
