<svg width="1009" height="991" viewBox="0 0 1009 991" fill="none" xmlns="http://www.w3.org/2000/svg">
<g clip-path="url(#clip0_7837_21)">
<path d="M849.592 700.001H48.8887C21.8629 700.001 0 678.138 0 651.112V49.873C0 22.8472 21.8629 0.984375 48.8887 0.984375H849.592C876.618 0.984375 898.481 22.8472 898.481 49.873V651.112C898.481 678.138 876.618 700.001 849.592 700.001Z" fill="url(#paint0_linear_7837_21)"/>
<path d="M644.56 163.305H254.747C246.184 163.305 239.258 170.231 239.258 178.772C239.258 187.313 246.184 194.24 254.747 194.24H644.56C653.122 194.24 660.049 187.313 660.049 178.772C660.049 170.231 653.122 163.305 644.56 163.305Z" fill="url(#paint1_linear_7837_21)"/>
<path d="M529.064 225.172H370.245C361.704 225.172 354.777 232.098 354.777 240.639C354.777 249.181 361.704 256.128 370.245 256.128H529.064C537.605 256.128 544.532 249.202 544.532 240.639C544.532 232.077 537.605 225.172 529.064 225.172Z" fill="url(#paint2_linear_7837_21)"/>
<path d="M519.165 322.125H87.2623C75.5281 322.125 66.0156 331.637 66.0156 343.372V610.273C66.0156 622.007 75.5281 631.519 87.2623 631.519H519.165C530.899 631.519 540.412 622.007 540.412 610.273V343.372C540.412 331.637 530.899 322.125 519.165 322.125Z" fill="url(#paint3_linear_7837_21)"/>
<path d="M540.414 556.493V610.289C540.414 622.017 530.895 631.536 519.167 631.536H213.023L343.499 500.338L398.975 444.544C407.282 436.194 420.795 436.194 429.102 444.544L540.414 556.493Z" fill="url(#paint4_linear_7837_21)"/>
<path d="M474.505 631.527H87.2623C75.5341 631.527 66.0156 622.008 66.0156 610.28V545.563L212.299 399.067C220.607 390.759 234.077 390.759 242.363 399.067L343.498 500.328L474.505 631.527Z" fill="url(#paint5_linear_7837_21)"/>
<path d="M898.481 97.1045V49.873C898.481 22.8472 876.618 0.984375 849.592 0.984375H48.8887C21.8629 0.984375 0 22.8472 0 49.873V97.1045H898.481Z" fill="url(#paint6_linear_7837_21)"/>
<path d="M53.4132 68.0117C62.5281 68.0117 69.9219 60.6179 69.9219 51.5031C69.9219 42.3882 62.5281 35.0156 53.4132 35.0156C44.2984 35.0156 36.9258 42.3882 36.9258 51.5031C36.9258 60.6179 44.2984 68.0117 53.4132 68.0117Z" fill="url(#paint7_linear_7837_21)"/>
<path d="M112.013 68.0117C121.127 68.0117 128.5 60.6179 128.5 51.5031C128.5 42.3882 121.127 35.0156 112.013 35.0156C102.898 35.0156 95.5039 42.3882 95.5039 51.5031C95.5039 60.6179 102.898 68.0117 112.013 68.0117Z" fill="url(#paint8_linear_7837_21)"/>
<path d="M170.591 68.0117C179.706 68.0117 187.078 60.6179 187.078 51.5031C187.078 42.3882 179.706 35.0156 170.591 35.0156C161.476 35.0156 154.082 42.3882 154.082 51.5031C154.082 60.6179 161.476 68.0117 170.591 68.0117Z" fill="url(#paint9_linear_7837_21)"/>
<path d="M765.669 512.83C838.014 556.088 926.379 537.816 963.05 472.057C999.722 406.277 970.805 317.912 898.482 274.675C826.137 231.438 737.772 249.689 701.1 315.469C664.428 381.228 693.345 469.593 765.669 512.83Z" fill="url(#paint10_linear_7837_21)"/>
<path d="M906.022 258.28L854.117 227.281L812.855 301.177L864.782 332.176L906.022 258.28Z" fill="url(#paint11_linear_7837_21)"/>
<path d="M981.173 369.997L972.93 341.484L902.051 358.036L910.316 386.549L981.173 369.997Z" fill="url(#paint12_linear_7837_21)"/>
<path d="M980.686 370.793L970.572 336.48C967.832 327.174 971.699 318.229 979.22 316.508C986.741 314.787 995.049 320.927 997.789 330.233L1007.9 364.547C1010.64 373.853 1006.78 382.776 999.255 384.518C991.734 386.239 983.427 380.078 980.686 370.793Z" fill="url(#paint13_linear_7837_21)"/>
<path d="M915.115 265.793L842.728 222.917C834.803 218.242 832.062 207.917 836.588 199.885C841.113 191.833 851.205 189.113 859.13 193.809L931.518 236.663C939.422 241.359 942.184 251.664 937.637 259.716C933.111 267.747 923.04 270.467 915.115 265.793Z" fill="url(#paint14_linear_7837_21)"/>
<path d="M900.35 257.294L857.389 231.734C849.4 226.996 846.638 216.564 851.185 208.426C855.753 200.31 865.909 197.569 873.897 202.307L916.858 227.846C924.826 232.605 927.609 243.037 923.062 251.175C918.494 259.291 908.338 262.032 900.35 257.294Z" fill="url(#paint15_linear_7837_21)"/>
<path d="M879.826 245.577L877.573 244.218C869.393 239.331 866.546 228.601 871.199 220.251C875.852 211.923 886.242 209.118 894.422 214.005L896.674 215.343C904.854 220.23 907.701 230.96 903.048 239.31C898.395 247.66 888.005 250.464 879.826 245.577Z" fill="url(#paint16_linear_7837_21)"/>
<path d="M739.724 497.269C811.921 540.442 900.137 522.213 936.745 456.56C973.353 390.908 944.479 302.713 872.283 259.54C800.086 216.388 711.87 234.617 675.262 300.248C638.654 365.901 667.507 454.117 739.724 497.269Z" fill="url(#paint17_linear_7837_21)"/>
<path d="M753.684 473.788C810.987 508.038 880.994 493.569 910.039 441.472C939.104 389.375 916.2 319.367 858.877 285.118C801.574 250.847 731.566 265.316 702.522 317.434C673.478 369.531 696.382 439.539 753.684 473.788Z" fill="url(#paint18_linear_7837_21)"/>
<path d="M889.279 425.241C912.523 383.555 894.208 327.549 848.358 300.141L806.289 375.609L889.279 425.241Z" fill="url(#paint19_linear_7837_21)"/>
<path d="M794.351 400.835C807.354 408.611 823.226 405.318 829.791 393.526C836.377 381.712 831.193 365.841 818.212 358.065C805.209 350.31 789.337 353.582 782.772 365.395C776.186 377.208 781.37 393.079 794.351 400.835Z" fill="url(#paint20_linear_7837_21)"/>
<path d="M660.242 558.176C666.531 547.277 680.469 543.537 691.369 549.826L824.586 626.739C829.642 629.671 833.403 634.409 835.039 640.04L866.59 747.166C868.375 753.136 867.589 759.574 864.466 764.992L746.865 968.684C740.576 979.583 726.659 983.323 715.739 977.034L512.493 859.688C501.593 853.399 497.854 839.461 504.143 828.562L660.221 558.198L660.242 558.176Z" fill="url(#paint21_linear_7837_21)"/>
<path d="M673.922 565.012C680.211 554.113 694.149 550.373 705.048 556.662L838.265 633.575C843.322 636.486 847.083 641.245 848.719 646.855L880.27 753.98C882.055 759.972 881.269 766.431 878.145 771.828L760.545 975.52C754.256 986.419 740.339 990.159 729.418 983.87L526.172 866.524C515.273 860.214 511.533 846.297 517.822 835.398L673.901 565.034L673.922 565.012Z" fill="url(#paint22_linear_7837_21)"/>
<path d="M602.153 689.328L803.444 805.548C808.883 808.692 810.753 815.661 807.609 821.121L748.373 923.722C745.228 929.182 738.259 931.031 732.799 927.886L531.508 811.667L602.153 689.328Z" fill="url(#paint23_linear_7837_21)"/>
<path d="M628.456 824.001C625.523 822.323 622.931 820.325 620.722 818.073C618.512 815.821 616.834 813.357 615.623 810.701C614.454 807.981 613.88 805.177 613.965 802.266C614.072 799.397 614.943 796.465 616.536 793.448C616.812 792.96 617.195 792.683 617.705 792.535C618.236 792.344 618.746 792.407 619.277 792.726L628.286 797.931C628.965 798.314 629.412 798.824 629.539 799.397C629.773 800.014 629.773 800.715 629.582 801.522C628.88 803.371 628.625 805.049 628.88 806.579C629.114 808.13 629.709 809.511 630.665 810.764C631.706 811.997 633.066 813.08 634.681 814.036C637.698 815.779 640.545 816.119 643.243 815.056C646.005 814.058 648.385 811.784 650.467 808.194L664.405 784.036L638.101 768.866C637.57 768.547 637.23 768.122 637.103 767.527C636.954 766.954 637.018 766.401 637.315 765.87L641.14 759.241C641.48 758.668 641.947 758.306 642.521 758.158C643.095 758.009 643.647 758.094 644.157 758.391L681.339 779.85C681.912 780.19 682.295 780.658 682.422 781.21C682.571 781.805 682.486 782.379 682.167 782.953L663.109 815.949C660.496 820.474 657.33 823.789 653.612 825.828C649.915 827.826 645.942 828.697 641.628 828.378C637.294 828.059 632.917 826.614 628.434 824.022L628.456 824.001Z" fill="url(#paint24_linear_7837_21)"/>
<path d="M682.082 854.954C677.025 852.043 673.222 848.856 670.651 845.414C668.144 841.993 666.678 838.594 666.317 835.237C665.955 831.88 666.486 828.82 667.931 826.058C668.165 825.654 668.547 825.378 669.057 825.23C669.589 825.038 670.077 825.06 670.566 825.336L679.001 830.223C679.681 830.626 680.127 831.094 680.297 831.604C680.531 832.092 680.658 832.623 680.743 833.218C680.573 834.344 680.658 835.534 680.977 836.852C681.317 838.169 682.039 839.55 683.144 840.931C684.27 842.269 685.863 843.544 687.967 844.777C691.388 846.731 694.256 847.666 696.572 847.539C698.951 847.454 700.672 846.455 701.777 844.564C702.585 843.204 702.733 841.802 702.287 840.421C701.884 839.061 700.864 837.468 699.249 835.64C697.698 833.813 695.509 831.582 692.705 828.926C689.242 825.803 686.501 822.765 684.482 819.854C682.528 816.901 681.444 813.948 681.253 811.037C681.147 808.105 681.975 805.045 683.803 801.879C685.63 798.735 688.116 796.44 691.239 795.017C694.405 793.529 697.953 793.041 701.926 793.487C705.899 793.891 710.064 795.357 714.44 797.885C717.967 799.904 720.793 802.177 722.939 804.684C725.127 807.212 726.678 809.741 727.592 812.312C728.548 814.882 729.016 817.326 728.931 819.599C728.888 821.894 728.399 823.87 727.528 825.527C727.273 825.952 726.891 826.249 726.36 826.441C725.85 826.568 725.382 826.504 724.894 826.228L716.055 821.129C715.524 820.832 715.12 820.449 714.823 819.982C714.525 819.535 714.398 818.962 714.44 818.303C714.929 816.752 714.653 815.031 713.633 813.098C712.719 811.164 711.041 809.465 708.555 808.041C705.984 806.554 703.647 805.853 701.586 805.916C699.568 806.001 697.995 807.042 696.869 808.976C696.147 810.251 695.892 811.525 696.104 812.843C696.423 814.139 697.273 815.647 698.654 817.368C700.141 819.047 702.139 821.171 704.688 823.679C708.767 827.312 711.869 830.605 714.015 833.601C716.161 836.575 717.287 839.529 717.457 842.418C717.649 845.265 716.82 848.282 714.993 851.427C712.932 854.954 710.212 857.418 706.749 858.778C703.35 860.159 699.504 860.563 695.233 859.925C691.069 859.267 686.692 857.631 682.103 854.975L682.082 854.954Z" fill="url(#paint25_linear_7837_21)"/>
<path d="M111.27 757.85C104.683 746.441 108.593 731.844 120.002 725.237L223.303 665.618C228.594 662.538 234.883 661.624 240.853 663.09L325.967 683.635C332.32 685.187 337.759 689.245 341.031 694.896L434.049 856.01C440.636 867.419 436.727 882.016 425.317 888.624L267.093 979.963C255.683 986.55 241.087 982.64 234.479 971.231L111.27 757.85Z" fill="url(#paint26_linear_7837_21)"/>
<path d="M100.496 764.96C93.9097 753.55 97.8191 738.954 109.229 732.346L212.53 672.728C217.82 669.647 224.109 668.733 230.08 670.199L315.173 690.745C321.547 692.296 326.986 696.354 330.258 702.006L423.255 863.119C429.863 874.529 425.953 889.125 414.522 895.733L256.319 987.073C244.889 993.659 230.292 989.771 223.706 978.34L100.496 764.96Z" fill="url(#paint27_linear_7837_21)"/>
<path d="M156.949 862.709L320.23 768.459C325.945 765.165 333.212 767.12 336.526 772.835L382.674 852.766C385.967 858.481 384.013 865.747 378.297 869.062L215.016 963.312L156.949 862.709Z" fill="url(#paint28_linear_7837_21)"/>
<path d="M244.506 907.794C240.618 910.046 236.942 911.3 233.479 911.597C230.016 911.831 226.85 911.151 223.939 909.515C220.986 907.837 218.394 905.266 216.163 901.76C215.143 900.082 214.06 898.297 212.934 896.342C211.808 894.409 210.766 892.518 209.789 890.733C207.898 887.079 206.963 883.594 207.048 880.259C207.112 876.838 208.132 873.693 210.108 870.804C212.063 867.893 214.952 865.343 218.755 863.134C221.517 861.54 224.237 860.435 226.935 859.841C229.612 859.224 232.162 859.097 234.563 859.458C236.964 859.84 239.152 860.648 241.086 861.901C243.04 863.176 244.676 864.855 246.036 867.001C246.248 867.362 246.27 867.765 246.121 868.169C246.036 868.552 245.781 868.87 245.399 869.083L238.323 873.162C237.814 873.438 237.367 873.545 236.942 873.481C236.517 873.417 236.029 873.12 235.54 872.652C233.522 870.549 231.503 869.487 229.549 869.402C227.573 869.338 225.512 869.933 223.366 871.165C220.795 872.652 219.159 874.501 218.5 876.774C217.842 879.048 218.352 881.831 220.115 885.167C221.963 888.63 223.961 892.093 226.128 895.577C228.125 898.786 230.313 900.655 232.587 901.208C234.881 901.739 237.304 901.272 239.896 899.806C242.042 898.573 243.571 897.065 244.506 895.322C245.441 893.516 245.505 891.243 244.697 888.524C244.506 887.801 244.506 887.249 244.676 886.866C244.825 886.463 245.122 886.101 245.632 885.825L252.707 881.746C253.09 881.533 253.472 881.491 253.855 881.576C254.28 881.661 254.62 881.895 254.832 882.277C256.001 884.529 256.681 886.781 256.766 889.076C256.893 891.392 256.511 893.687 255.618 895.96C254.726 898.233 253.345 900.379 251.496 902.398C249.605 904.395 247.29 906.222 244.527 907.816L244.506 907.794Z" fill="url(#paint29_linear_7837_21)"/>
<path d="M285.895 883.914C281.943 886.209 278.267 887.547 274.91 887.951C271.596 888.312 268.728 887.972 266.263 886.91C263.82 885.826 261.971 884.254 260.654 882.214C260.463 881.875 260.441 881.513 260.526 881.11C260.59 880.685 260.845 880.366 261.185 880.154L267.814 876.308C268.366 875.989 268.834 875.883 269.28 875.968C269.705 875.989 270.109 876.117 270.576 876.308C271.277 876.839 272.106 877.264 273.104 877.583C274.146 877.838 275.378 877.901 276.759 877.71C278.097 877.498 279.606 876.903 281.263 875.947C283.94 874.396 285.704 872.802 286.511 871.166C287.361 869.488 287.361 867.937 286.511 866.449C285.895 865.366 285.024 864.728 283.919 864.495C282.814 864.24 281.348 864.303 279.457 864.665C277.609 865.026 275.229 865.621 272.318 866.471C268.834 867.597 265.711 868.277 262.906 868.532C260.144 868.68 257.722 868.277 255.661 867.257C253.6 866.173 251.858 864.389 250.434 861.903C249.011 859.417 248.416 856.846 248.671 854.148C248.926 851.428 249.988 848.793 251.836 846.286C253.642 843.737 256.298 841.463 259.74 839.487C262.502 837.894 265.158 836.853 267.687 836.385C270.257 835.875 272.594 835.833 274.698 836.215C276.844 836.598 278.692 837.235 280.201 838.17C281.731 839.105 282.878 840.188 283.664 841.463C283.855 841.803 283.898 842.186 283.834 842.611C283.749 842.993 283.494 843.312 283.112 843.524L276.164 847.54C275.76 847.774 275.335 847.901 274.889 847.922C274.464 847.944 274.039 847.837 273.593 847.519C272.701 846.584 271.426 846.095 269.747 846.031C268.048 845.883 266.242 846.393 264.308 847.519C262.29 848.687 260.888 849.983 260.101 851.407C259.379 852.83 259.464 854.296 260.335 855.826C260.909 856.825 261.695 857.505 262.672 857.887C263.671 858.163 265.031 858.206 266.752 857.929C268.473 857.568 270.704 857.037 273.402 856.315C277.481 854.955 280.944 854.148 283.813 853.85C286.702 853.574 289.146 853.935 291.164 854.976C293.161 855.975 294.882 857.717 296.327 860.203C297.921 862.965 298.515 865.791 298.091 868.68C297.708 871.549 296.476 874.311 294.372 876.967C292.269 879.537 289.422 881.874 285.831 883.957L285.895 883.914Z" fill="url(#paint30_linear_7837_21)"/>
<path d="M326.349 860.55C322.355 862.845 318.721 864.184 315.343 864.566C312.05 864.948 309.16 864.587 306.717 863.525C304.274 862.463 302.404 860.89 301.108 858.829C300.917 858.49 300.874 858.128 300.98 857.746C301.044 857.321 301.257 856.981 301.639 856.769L308.268 852.944C308.82 852.625 309.288 852.519 309.734 852.583C310.138 852.625 310.563 852.753 311.009 852.944C311.71 853.475 312.56 853.9 313.558 854.176C314.599 854.453 315.811 854.516 317.192 854.325C318.551 854.091 320.06 853.496 321.696 852.54C324.394 850.989 326.136 849.417 326.965 847.76C327.815 846.103 327.815 844.53 326.965 843.064C326.349 841.981 325.457 841.322 324.33 841.11C323.247 840.855 321.781 840.897 319.89 841.28C318.041 841.62 315.662 842.236 312.751 843.086C309.267 844.212 306.122 844.87 303.339 845.104C300.555 845.274 298.133 844.849 296.051 843.829C293.99 842.746 292.248 840.982 290.824 838.496C289.401 836.01 288.827 833.418 289.082 830.741C289.316 828 290.378 825.387 292.227 822.88C294.075 820.33 296.689 818.057 300.13 816.081C302.893 814.488 305.548 813.446 308.098 812.979C310.669 812.469 313.006 812.427 315.109 812.809C317.234 813.17 319.061 813.808 320.591 814.743C322.121 815.699 323.289 816.761 324.076 818.036C324.267 818.376 324.309 818.758 324.245 819.183C324.118 819.587 323.884 819.884 323.523 820.097L316.575 824.112C316.151 824.346 315.747 824.495 315.301 824.516C314.876 824.537 314.451 824.389 313.983 824.112C313.133 823.178 311.837 822.689 310.138 822.604C308.459 822.455 306.653 822.965 304.72 824.091C302.701 825.26 301.278 826.577 300.513 828C299.769 829.403 299.876 830.89 300.747 832.42C301.32 833.397 302.085 834.098 303.084 834.438C304.082 834.757 305.442 834.778 307.142 834.481C308.884 834.141 311.094 833.588 313.835 832.866C317.893 831.506 321.377 830.699 324.245 830.401C327.114 830.146 329.578 830.529 331.597 831.549C333.594 832.526 335.315 834.268 336.76 836.754C338.353 839.516 338.948 842.363 338.523 845.253C338.141 848.121 336.866 850.883 334.784 853.539C332.702 856.11 329.833 858.447 326.264 860.529L326.349 860.55Z" fill="url(#paint31_linear_7837_21)"/>
</g>
<defs>
<linearGradient id="paint0_linear_7837_21" x1="480.133" y1="1641.19" x2="434.538" y2="-264.026" gradientUnits="userSpaceOnUse">
<stop stop-color="#0A1A2C"/>
<stop offset="0.5" stop-color="#203E6A"/>
<stop offset="1" stop-color="#4A7499"/>
</linearGradient>
<linearGradient id="paint1_linear_7837_21" x1="447.072" y1="843.348" x2="449.855" y2="128.864" gradientUnits="userSpaceOnUse">
<stop stop-color="#386E9C"/>
<stop offset="1" stop-color="white"/>
</linearGradient>
<linearGradient id="paint2_linear_7837_21" x1="447.328" y1="843.345" x2="450.09" y2="128.861" gradientUnits="userSpaceOnUse">
<stop stop-color="#386E9C"/>
<stop offset="1" stop-color="white"/>
</linearGradient>
<linearGradient id="paint3_linear_7837_21" x1="318.554" y1="1190.37" x2="298.285" y2="247.91" gradientUnits="userSpaceOnUse">
<stop stop-color="#386E9C"/>
<stop offset="1" stop-color="white"/>
</linearGradient>
<linearGradient id="paint4_linear_7837_21" x1="376.719" y1="438.281" x2="376.719" y2="705.235" gradientUnits="userSpaceOnUse">
<stop stop-color="#FFAA49"/>
<stop offset="1" stop-color="#FF7754"/>
</linearGradient>
<linearGradient id="paint5_linear_7837_21" x1="-151.635" y1="1047.73" x2="121.468" y2="102.08" gradientUnits="userSpaceOnUse">
<stop stop-color="#FF2A64"/>
<stop offset="0.0745029" stop-color="#FF3562"/>
<stop offset="0.711" stop-color="#FF8C4F"/>
<stop offset="1" stop-color="#FFAE48"/>
</linearGradient>
<linearGradient id="paint6_linear_7837_21" x1="456.358" y1="680.943" x2="445.055" y2="-283.594" gradientUnits="userSpaceOnUse">
<stop stop-color="#FF2A64"/>
<stop offset="1" stop-color="#FFAF48"/>
</linearGradient>
<linearGradient id="paint7_linear_7837_21" x1="44.5533" y1="320.656" x2="56.5152" y2="-42.4923" gradientUnits="userSpaceOnUse">
<stop stop-color="#386E9C"/>
<stop offset="1" stop-color="white"/>
</linearGradient>
<linearGradient id="paint8_linear_7837_21" x1="103.068" y1="322.59" x2="115.03" y2="-40.5801" gradientUnits="userSpaceOnUse">
<stop stop-color="#386E9C"/>
<stop offset="1" stop-color="white"/>
</linearGradient>
<linearGradient id="paint9_linear_7837_21" x1="161.582" y1="324.523" x2="173.544" y2="-38.6467" gradientUnits="userSpaceOnUse">
<stop stop-color="#386E9C"/>
<stop offset="1" stop-color="white"/>
</linearGradient>
<linearGradient id="paint10_linear_7837_21" x1="564.207" y1="723.979" x2="1048.27" y2="127.244" gradientUnits="userSpaceOnUse">
<stop stop-color="#0A1A2C"/>
<stop offset="0.5" stop-color="#203E6A"/>
<stop offset="1" stop-color="#4A7499"/>
</linearGradient>
<linearGradient id="paint11_linear_7837_21" x1="852.162" y1="293.422" x2="951.426" y2="106.897" gradientUnits="userSpaceOnUse">
<stop stop-color="#0A1A2C"/>
<stop offset="0.5" stop-color="#203E6A"/>
<stop offset="1" stop-color="#4A7499"/>
</linearGradient>
<linearGradient id="paint12_linear_7837_21" x1="897.993" y1="380.791" x2="1055.98" y2="320.025" gradientUnits="userSpaceOnUse">
<stop stop-color="#386E9C"/>
<stop offset="1" stop-color="white"/>
</linearGradient>
<linearGradient id="paint13_linear_7837_21" x1="864.636" y1="392.635" x2="1054.18" y2="328.555" gradientUnits="userSpaceOnUse">
<stop stop-color="#386E9C"/>
<stop offset="1" stop-color="white"/>
</linearGradient>
<linearGradient id="paint14_linear_7837_21" x1="821.439" y1="358.662" x2="905.979" y2="192.81" gradientUnits="userSpaceOnUse">
<stop stop-color="#0A1A2C"/>
<stop offset="0.5" stop-color="#203E6A"/>
<stop offset="1" stop-color="#4A7499"/>
</linearGradient>
<linearGradient id="paint15_linear_7837_21" x1="841.369" y1="311.303" x2="936.32" y2="142.222" gradientUnits="userSpaceOnUse">
<stop stop-color="#0A1A2C"/>
<stop offset="0.5" stop-color="#203E6A"/>
<stop offset="1" stop-color="#4A7499"/>
</linearGradient>
<linearGradient id="paint16_linear_7837_21" x1="870.753" y1="259.409" x2="921.49" y2="167.708" gradientUnits="userSpaceOnUse">
<stop stop-color="#0A1A2C"/>
<stop offset="0.5" stop-color="#203E6A"/>
<stop offset="1" stop-color="#4A7499"/>
</linearGradient>
<linearGradient id="paint17_linear_7837_21" x1="409.253" y1="1073.29" x2="888.961" y2="233.13" gradientUnits="userSpaceOnUse">
<stop stop-color="#386E9C"/>
<stop offset="1" stop-color="white"/>
</linearGradient>
<linearGradient id="paint18_linear_7837_21" x1="499.191" y1="779.783" x2="1125.8" y2="-37.1099" gradientUnits="userSpaceOnUse">
<stop stop-color="#0A1A2C"/>
<stop offset="0.5" stop-color="#203E6A"/>
<stop offset="1" stop-color="#4A7499"/>
</linearGradient>
<linearGradient id="paint19_linear_7837_21" x1="663.639" y1="569.4" x2="1023.01" y2="207.335" gradientUnits="userSpaceOnUse">
<stop stop-color="#FF2A64"/>
<stop offset="1" stop-color="#FFAF48"/>
</linearGradient>
<linearGradient id="paint20_linear_7837_21" x1="474.631" y1="800.995" x2="871.095" y2="297.087" gradientUnits="userSpaceOnUse">
<stop stop-color="#386E9C"/>
<stop offset="1" stop-color="white"/>
</linearGradient>
<linearGradient id="paint21_linear_7837_21" x1="555.05" y1="1103.92" x2="861.172" y2="376.56" gradientUnits="userSpaceOnUse">
<stop stop-color="#0A1A2C"/>
<stop offset="0.5" stop-color="#203E6A"/>
<stop offset="1" stop-color="#4A7499"/>
</linearGradient>
<linearGradient id="paint22_linear_7837_21" x1="413.607" y1="1486.89" x2="810.496" y2="533.291" gradientUnits="userSpaceOnUse">
<stop stop-color="#386E9C"/>
<stop offset="1" stop-color="white"/>
</linearGradient>
<linearGradient id="paint23_linear_7837_21" x1="524.348" y1="1182.63" x2="710.108" y2="714.314" gradientUnits="userSpaceOnUse">
<stop stop-color="#FF2A64"/>
<stop offset="1" stop-color="#FFAF48"/>
</linearGradient>
<linearGradient id="paint24_linear_7837_21" x1="591.784" y1="915.171" x2="692.982" y2="691.889" gradientUnits="userSpaceOnUse">
<stop stop-color="#0A1A2C"/>
<stop offset="0.5" stop-color="#203E6A"/>
<stop offset="1" stop-color="#4A7499"/>
</linearGradient>
<linearGradient id="paint25_linear_7837_21" x1="646.026" y1="939.77" x2="747.245" y2="716.468" gradientUnits="userSpaceOnUse">
<stop stop-color="#0A1A2C"/>
<stop offset="0.5" stop-color="#203E6A"/>
<stop offset="1" stop-color="#4A7499"/>
</linearGradient>
<linearGradient id="paint26_linear_7837_21" x1="409.637" y1="1060.74" x2="140.76" y2="562.572" gradientUnits="userSpaceOnUse">
<stop stop-color="#0A1A2C"/>
<stop offset="0.5" stop-color="#203E6A"/>
<stop offset="1" stop-color="#4A7499"/>
</linearGradient>
<linearGradient id="paint27_linear_7837_21" x1="469.041" y1="1263.7" x2="90.4465" y2="441.946" gradientUnits="userSpaceOnUse">
<stop stop-color="#386E9C"/>
<stop offset="1" stop-color="white"/>
</linearGradient>
<linearGradient id="paint28_linear_7837_21" x1="480.876" y1="1312.37" x2="213.636" y2="736.674" gradientUnits="userSpaceOnUse">
<stop stop-color="#FF2A64"/>
<stop offset="1" stop-color="#FFAF48"/>
</linearGradient>
<linearGradient id="paint29_linear_7837_21" x1="324.691" y1="1064.55" x2="148.386" y2="724.796" gradientUnits="userSpaceOnUse">
<stop stop-color="#0A1A2C"/>
<stop offset="0.5" stop-color="#203E6A"/>
<stop offset="1" stop-color="#4A7499"/>
</linearGradient>
<linearGradient id="paint30_linear_7837_21" x1="367.397" y1="1042.39" x2="191.071" y2="702.637" gradientUnits="userSpaceOnUse">
<stop stop-color="#0A1A2C"/>
<stop offset="0.5" stop-color="#203E6A"/>
<stop offset="1" stop-color="#4A7499"/>
</linearGradient>
<linearGradient id="paint31_linear_7837_21" x1="408.807" y1="1020.88" x2="232.502" y2="681.122" gradientUnits="userSpaceOnUse">
<stop stop-color="#0A1A2C"/>
<stop offset="0.5" stop-color="#203E6A"/>
<stop offset="1" stop-color="#4A7499"/>
</linearGradient>
<clipPath id="clip0_7837_21">
<rect width="1008.79" height="989.289" fill="white" transform="translate(0 0.984375)"/>
</clipPath>
</defs>
</svg>
