<svg width="902" height="1000" viewBox="0 0 902 1000" fill="none" xmlns="http://www.w3.org/2000/svg">
<g clip-path="url(#clip0_7837_266)">
<path d="M839.586 349.688H223.539V907.056H839.586V349.688Z" fill="url(#paint0_linear_7837_266)"/>
<path d="M881.29 185.977H173.397C162.184 185.977 153.094 195.067 153.094 206.28V393.168C153.094 404.381 162.184 413.471 173.397 413.471H881.29C892.503 413.471 901.593 404.381 901.593 393.168V206.28C901.593 195.067 892.503 185.977 881.29 185.977Z" fill="url(#paint1_linear_7837_266)"/>
<path d="M881.29 185.977H173.397C162.184 185.977 153.094 195.067 153.094 206.28V393.168C153.094 404.381 162.184 413.471 173.397 413.471H881.29C892.503 413.471 901.593 404.381 901.593 393.168V206.28C901.593 195.067 892.503 185.977 881.29 185.977Z" fill="url(#paint2_linear_7837_266)"/>
<path d="M809.291 249.773H538.687C532.422 249.773 527.344 254.852 527.344 261.117V275.537C527.344 281.802 532.422 286.881 538.687 286.881H809.291C815.555 286.881 820.634 281.802 820.634 275.537V261.117C820.634 254.852 815.555 249.773 809.291 249.773Z" fill="url(#paint3_linear_7837_266)"/>
<path d="M809.291 312.578H538.687C532.422 312.578 527.344 317.657 527.344 323.922V338.342C527.344 344.607 532.422 349.685 538.687 349.685H809.291C815.555 349.685 820.634 344.607 820.634 338.342V323.922C820.634 317.657 815.555 312.578 809.291 312.578Z" fill="url(#paint4_linear_7837_266)"/>
<path d="M268.76 335.653C287.349 335.653 302.419 320.583 302.419 301.994C302.419 283.405 287.349 268.336 268.76 268.336C250.171 268.336 235.102 283.405 235.102 301.994C235.102 320.583 250.171 335.653 268.76 335.653Z" fill="url(#paint5_linear_7837_266)"/>
<path d="M375.905 335.653C394.494 335.653 409.563 320.583 409.563 301.994C409.563 283.405 394.494 268.336 375.905 268.336C357.316 268.336 342.246 283.405 342.246 301.994C342.246 320.583 357.316 335.653 375.905 335.653Z" fill="url(#paint6_linear_7837_266)"/>
<path d="M809.291 249.773H538.687C532.422 249.773 527.344 254.852 527.344 261.117V275.537C527.344 281.802 532.422 286.881 538.687 286.881H809.291C815.555 286.881 820.634 281.802 820.634 275.537V261.117C820.634 254.852 815.555 249.773 809.291 249.773Z" fill="url(#paint7_linear_7837_266)"/>
<path d="M809.291 312.578H538.687C532.422 312.578 527.344 317.657 527.344 323.922V338.342C527.344 344.607 532.422 349.685 538.687 349.685H809.291C815.555 349.685 820.634 344.607 820.634 338.342V323.922C820.634 317.657 815.555 312.578 809.291 312.578Z" fill="url(#paint8_linear_7837_266)"/>
<path d="M268.76 335.653C287.349 335.653 302.419 320.583 302.419 301.994C302.419 283.405 287.349 268.336 268.76 268.336C250.171 268.336 235.102 283.405 235.102 301.994C235.102 320.583 250.171 335.653 268.76 335.653Z" fill="url(#paint9_linear_7837_266)"/>
<path d="M375.905 335.653C394.494 335.653 409.563 320.583 409.563 301.994C409.563 283.405 394.494 268.336 375.905 268.336C357.316 268.336 342.246 283.405 342.246 301.994C342.246 320.583 357.316 335.653 375.905 335.653Z" fill="url(#paint10_linear_7837_266)"/>
<path d="M881.29 479.25H173.397C162.184 479.25 153.094 488.34 153.094 499.553V686.442C153.094 697.655 162.184 706.745 173.397 706.745H881.29C892.503 706.745 901.593 697.655 901.593 686.442V499.553C901.593 488.34 892.503 479.25 881.29 479.25Z" fill="url(#paint11_linear_7837_266)"/>
<path d="M809.291 543.031H538.687C532.422 543.031 527.344 548.11 527.344 554.375V568.795C527.344 575.06 532.422 580.138 538.687 580.138H809.291C815.555 580.138 820.634 575.06 820.634 568.795V554.375C820.634 548.11 815.555 543.031 809.291 543.031Z" fill="url(#paint12_linear_7837_266)"/>
<path d="M809.291 605.836H538.687C532.422 605.836 527.344 610.915 527.344 617.179V631.6C527.344 637.864 532.422 642.943 538.687 642.943H809.291C815.555 642.943 820.634 637.864 820.634 631.6V617.179C820.634 610.915 815.555 605.836 809.291 605.836Z" fill="url(#paint13_linear_7837_266)"/>
<path d="M268.76 628.911C287.349 628.911 302.419 613.841 302.419 595.252C302.419 576.663 287.349 561.594 268.76 561.594C250.171 561.594 235.102 576.663 235.102 595.252C235.102 613.841 250.171 628.911 268.76 628.911Z" fill="url(#paint14_linear_7837_266)"/>
<path d="M375.905 628.911C394.494 628.911 409.563 613.841 409.563 595.252C409.563 576.663 394.494 561.594 375.905 561.594C357.316 561.594 342.246 576.663 342.246 595.252C342.246 613.841 357.316 628.911 375.905 628.911Z" fill="url(#paint15_linear_7837_266)"/>
<path d="M881.29 772.508H173.397C162.184 772.508 153.094 781.598 153.094 792.811V979.699C153.094 990.913 162.184 1000 173.397 1000H881.29C892.503 1000 901.593 990.913 901.593 979.699V792.811C901.593 781.598 892.503 772.508 881.29 772.508Z" fill="url(#paint16_linear_7837_266)"/>
<path d="M809.291 836.289H538.687C532.422 836.289 527.344 841.368 527.344 847.633V862.053C527.344 868.318 532.422 873.396 538.687 873.396H809.291C815.555 873.396 820.634 868.318 820.634 862.053V847.633C820.634 841.368 815.555 836.289 809.291 836.289Z" fill="url(#paint17_linear_7837_266)"/>
<path d="M809.291 899.109H538.687C532.422 899.109 527.344 904.188 527.344 910.453V924.873C527.344 931.138 532.422 936.217 538.687 936.217H809.291C815.555 936.217 820.634 931.138 820.634 924.873V910.453C820.634 904.188 815.555 899.109 809.291 899.109Z" fill="url(#paint18_linear_7837_266)"/>
<path d="M268.76 922.168C287.349 922.168 302.419 907.099 302.419 888.51C302.419 869.921 287.349 854.852 268.76 854.852C250.171 854.852 235.102 869.921 235.102 888.51C235.102 907.099 250.171 922.168 268.76 922.168Z" fill="url(#paint19_linear_7837_266)"/>
<path d="M375.905 922.168C394.494 922.168 409.563 907.099 409.563 888.51C409.563 869.921 394.494 854.852 375.905 854.852C357.316 854.852 342.246 869.921 342.246 888.51C342.246 907.099 357.316 922.168 375.905 922.168Z" fill="url(#paint20_linear_7837_266)"/>
<path d="M70.0734 327.121C132.572 389.62 233.92 389.62 296.419 327.121C358.918 264.623 358.918 163.292 296.419 100.793C233.92 38.2773 132.572 38.2773 70.0734 100.793C7.57448 163.292 7.57448 264.623 70.0734 327.121Z" fill="url(#paint21_linear_7837_266)"/>
<path d="M301.994 87.2321L257.77 43.0078L188.441 112.336L232.666 156.561L301.994 87.2321Z" fill="url(#paint22_linear_7837_266)"/>
<path d="M350.395 228.28V198.797H267.559V228.28H350.395Z" fill="url(#paint23_linear_7837_266)"/>
<path d="M310.364 95.6031L249.403 34.6426C241.475 26.7309 241.475 13.8828 249.403 5.95426C257.332 -1.97434 270.163 -1.97434 278.092 5.95426L339.052 66.9148C346.981 74.8434 346.981 87.6914 339.052 95.6031C331.141 103.532 318.293 103.532 310.364 95.6031Z" fill="url(#paint24_linear_7837_266)"/>
<path d="M297.227 82.4469L262.571 47.791C254.643 39.8624 254.643 27.0144 262.571 19.1027C270.483 11.1741 283.331 11.1741 291.26 19.1027L325.916 53.7586C333.844 61.6872 333.844 74.5352 325.916 82.4469C318.004 90.3755 305.156 90.3755 297.227 82.4469Z" fill="url(#paint25_linear_7837_266)"/>
<path d="M350.379 232.606V194.468C350.379 183.986 356.904 175.5 364.934 175.5H369.634C377.681 175.5 384.19 183.986 384.19 194.468V232.606C384.19 243.087 377.681 251.574 369.634 251.574H364.934C356.904 251.574 350.379 243.087 350.379 232.606Z" fill="url(#paint26_linear_7837_266)"/>
<path d="M279.9 65.1234C272.309 57.5329 272.309 45.2258 279.9 37.6353L281.1 36.4351C288.691 28.8446 300.998 28.8446 308.588 36.4351C316.179 44.0255 316.179 56.3326 308.588 63.94L307.388 65.1234C299.797 72.7139 287.49 72.7139 279.9 65.1234Z" fill="url(#paint27_linear_7837_266)"/>
<path d="M46.7933 303.014C109.191 365.395 210.335 365.395 272.733 303.014C335.113 240.617 335.113 139.472 272.733 77.0745C210.335 14.6939 109.191 14.6939 46.7933 77.0745C-15.5873 139.472 -15.5873 240.617 46.7933 303.014Z" fill="url(#paint28_linear_7837_266)"/>
<path d="M70.0899 280.905C119.606 330.42 199.889 330.42 249.405 280.905C298.92 231.389 298.92 151.106 249.405 101.59C199.889 52.0742 119.606 52.0742 70.0899 101.59C20.5742 151.106 20.5742 231.389 70.0899 280.905Z" fill="url(#paint29_linear_7837_266)"/>
<path d="M231.483 262.965C271.092 223.356 271.092 159.133 231.483 119.523L159.754 191.236L231.483 262.965Z" fill="url(#paint30_linear_7837_266)"/>
<path d="M139.419 211.559C150.644 222.784 168.851 222.784 180.076 211.559C191.284 200.351 191.284 182.144 180.076 170.919C168.851 159.694 150.644 159.694 139.419 170.919C128.194 182.144 128.194 200.351 139.419 211.559Z" fill="url(#paint31_linear_7837_266)"/>
<path d="M525.435 166.464L641.118 71.2869C644.026 68.9033 648.083 72.3351 646.19 75.5978L604.383 148.02C603.436 149.626 603.994 151.705 605.617 152.635L651.346 179.041C653.34 180.191 653.628 182.947 651.904 184.485L525.874 297.193C523.001 299.745 518.757 296.297 520.685 292.983L572.685 202.912C573.615 201.306 573.057 199.226 571.434 198.297L525.891 171.992C523.846 170.825 523.609 167.968 525.435 166.464Z" fill="url(#paint32_linear_7837_266)"/>
<path d="M91.8308 581.749L86.7423 470.579C86.5733 466.809 91.7463 465.626 93.234 469.092L116.901 524.389C117.645 526.113 119.623 526.908 121.347 526.164L157.457 510.712C159.57 509.8 161.954 511.237 162.157 513.536L173.061 638.838C173.399 642.675 168.091 643.994 166.586 640.461L136.9 571.098C136.173 569.391 134.179 568.596 132.454 569.323L96.5305 584.707C94.3666 585.637 91.9323 584.115 91.8308 581.749Z" fill="url(#paint33_linear_7837_266)"/>
</g>
<defs>
<linearGradient id="paint0_linear_7837_266" x1="545.619" y1="1797.61" x2="523.203" y2="-67.5524" gradientUnits="userSpaceOnUse">
<stop stop-color="#0A1A2C"/>
<stop offset="0.5" stop-color="#203E6A"/>
<stop offset="1" stop-color="#4A7499"/>
</linearGradient>
<linearGradient id="paint1_linear_7837_266" x1="528.578" y1="891.013" x2="526.87" y2="72.0009" gradientUnits="userSpaceOnUse">
<stop stop-color="#0A1A2C"/>
<stop offset="0.5" stop-color="#203E6A"/>
<stop offset="1" stop-color="#4A7499"/>
</linearGradient>
<linearGradient id="paint2_linear_7837_266" x1="538.214" y1="628.777" x2="511.723" y2="-173.228" gradientUnits="userSpaceOnUse">
<stop stop-color="#386E9C"/>
<stop offset="1" stop-color="white"/>
</linearGradient>
<linearGradient id="paint3_linear_7837_266" x1="678.393" y1="790.591" x2="673.287" y2="183.623" gradientUnits="userSpaceOnUse">
<stop stop-color="#386E9C"/>
<stop offset="1" stop-color="white"/>
</linearGradient>
<linearGradient id="paint4_linear_7837_266" x1="677.852" y1="790.407" x2="672.763" y2="183.438" gradientUnits="userSpaceOnUse">
<stop stop-color="#386E9C"/>
<stop offset="1" stop-color="white"/>
</linearGradient>
<linearGradient id="paint5_linear_7837_266" x1="269.132" y1="475.832" x2="268.625" y2="235.032" gradientUnits="userSpaceOnUse">
<stop stop-color="#386E9C"/>
<stop offset="1" stop-color="white"/>
</linearGradient>
<linearGradient id="paint6_linear_7837_266" x1="376.276" y1="475.832" x2="375.769" y2="235.032" gradientUnits="userSpaceOnUse">
<stop stop-color="#FF2A64"/>
<stop offset="1" stop-color="#FFAF48"/>
</linearGradient>
<linearGradient id="paint7_linear_7837_266" x1="678.393" y1="790.591" x2="673.287" y2="183.623" gradientUnits="userSpaceOnUse">
<stop stop-color="#386E9C"/>
<stop offset="1" stop-color="white"/>
</linearGradient>
<linearGradient id="paint8_linear_7837_266" x1="677.852" y1="790.407" x2="672.763" y2="183.438" gradientUnits="userSpaceOnUse">
<stop stop-color="#386E9C"/>
<stop offset="1" stop-color="white"/>
</linearGradient>
<linearGradient id="paint9_linear_7837_266" x1="269.132" y1="475.832" x2="268.625" y2="235.032" gradientUnits="userSpaceOnUse">
<stop stop-color="#FF2A64"/>
<stop offset="1" stop-color="#FFAF48"/>
</linearGradient>
<linearGradient id="paint10_linear_7837_266" x1="376.276" y1="475.832" x2="375.769" y2="235.032" gradientUnits="userSpaceOnUse">
<stop stop-color="#0A1A2C"/>
<stop offset="0.5" stop-color="#203E6A"/>
<stop offset="1" stop-color="#4A7499"/>
</linearGradient>
<linearGradient id="paint11_linear_7837_266" x1="527.344" y1="479.25" x2="527.344" y2="793.501" gradientUnits="userSpaceOnUse">
<stop stop-color="#FFAA49"/>
<stop offset="1" stop-color="#FF7754"/>
</linearGradient>
<linearGradient id="paint12_linear_7837_266" x1="678.393" y1="1083.85" x2="673.287" y2="476.898" gradientUnits="userSpaceOnUse">
<stop stop-color="#386E9C"/>
<stop offset="1" stop-color="white"/>
</linearGradient>
<linearGradient id="paint13_linear_7837_266" x1="677.852" y1="1083.66" x2="672.763" y2="476.696" gradientUnits="userSpaceOnUse">
<stop stop-color="#386E9C"/>
<stop offset="1" stop-color="white"/>
</linearGradient>
<linearGradient id="paint14_linear_7837_266" x1="269.132" y1="769.089" x2="268.625" y2="528.29" gradientUnits="userSpaceOnUse">
<stop stop-color="#386E9C"/>
<stop offset="1" stop-color="white"/>
</linearGradient>
<linearGradient id="paint15_linear_7837_266" x1="376.276" y1="769.089" x2="375.769" y2="528.29" gradientUnits="userSpaceOnUse">
<stop stop-color="#0A1A2C"/>
<stop offset="0.5" stop-color="#203E6A"/>
<stop offset="1" stop-color="#4A7499"/>
</linearGradient>
<linearGradient id="paint16_linear_7837_266" x1="527.344" y1="1240.19" x2="527.344" y2="334.728" gradientUnits="userSpaceOnUse">
<stop stop-color="#386E9C"/>
<stop offset="1" stop-color="white"/>
</linearGradient>
<linearGradient id="paint17_linear_7837_266" x1="664.53" y1="1120.91" x2="686.152" y2="513.127" gradientUnits="userSpaceOnUse">
<stop stop-color="#0A1A2C"/>
<stop offset="0.5" stop-color="#203E6A"/>
<stop offset="1" stop-color="#4A7499"/>
</linearGradient>
<linearGradient id="paint18_linear_7837_266" x1="666.796" y1="1120.3" x2="688.401" y2="512.518" gradientUnits="userSpaceOnUse">
<stop stop-color="#0A1A2C"/>
<stop offset="0.5" stop-color="#203E6A"/>
<stop offset="1" stop-color="#4A7499"/>
</linearGradient>
<linearGradient id="paint19_linear_7837_266" x1="269.132" y1="1062.36" x2="268.625" y2="821.548" gradientUnits="userSpaceOnUse">
<stop stop-color="#FF2A64"/>
<stop offset="1" stop-color="#FFAF48"/>
</linearGradient>
<linearGradient id="paint20_linear_7837_266" x1="376.276" y1="1062.36" x2="375.769" y2="821.548" gradientUnits="userSpaceOnUse">
<stop stop-color="#386E9C"/>
<stop offset="1" stop-color="white"/>
</linearGradient>
<linearGradient id="paint21_linear_7837_266" x1="-13.1683" y1="392.596" x2="451.66" y2="-30.1554" gradientUnits="userSpaceOnUse">
<stop stop-color="#0A1A2C"/>
<stop offset="0.5" stop-color="#203E6A"/>
<stop offset="1" stop-color="#4A7499"/>
</linearGradient>
<linearGradient id="paint22_linear_7837_266" x1="231.753" y1="116.242" x2="400.028" y2="-89.327" gradientUnits="userSpaceOnUse">
<stop stop-color="#0A1A2C"/>
<stop offset="0.5" stop-color="#203E6A"/>
<stop offset="1" stop-color="#4A7499"/>
</linearGradient>
<linearGradient id="paint23_linear_7837_266" x1="304.429" y1="214.772" x2="484.217" y2="166.068" gradientUnits="userSpaceOnUse">
<stop stop-color="#386E9C"/>
<stop offset="1" stop-color="white"/>
</linearGradient>
<linearGradient id="paint24_linear_7837_266" x1="209.118" y1="155.634" x2="307.845" y2="34.0002" gradientUnits="userSpaceOnUse">
<stop stop-color="#0A1A2C"/>
<stop offset="0.5" stop-color="#203E6A"/>
<stop offset="1" stop-color="#4A7499"/>
</linearGradient>
<linearGradient id="paint25_linear_7837_266" x1="221.492" y1="126.249" x2="333.422" y2="10.1091" gradientUnits="userSpaceOnUse">
<stop stop-color="#0A1A2C"/>
<stop offset="0.5" stop-color="#203E6A"/>
<stop offset="1" stop-color="#4A7499"/>
</linearGradient>
<linearGradient id="paint26_linear_7837_266" x1="270.518" y1="306.854" x2="437.221" y2="146.102" gradientUnits="userSpaceOnUse">
<stop stop-color="#386E9C"/>
<stop offset="1" stop-color="white"/>
</linearGradient>
<linearGradient id="paint27_linear_7837_266" x1="250.924" y1="98.9847" x2="379.1" y2="-43.6453" gradientUnits="userSpaceOnUse">
<stop stop-color="#0A1A2C"/>
<stop offset="0.5" stop-color="#203E6A"/>
<stop offset="1" stop-color="#4A7499"/>
</linearGradient>
<linearGradient id="paint28_linear_7837_266" x1="-207.023" y1="626.328" x2="342.89" y2="-27.7891" gradientUnits="userSpaceOnUse">
<stop stop-color="#386E9C"/>
<stop offset="1" stop-color="white"/>
</linearGradient>
<linearGradient id="paint29_linear_7837_266" x1="-112.048" y1="523.885" x2="424.358" y2="-132.582" gradientUnits="userSpaceOnUse">
<stop stop-color="#0A1A2C"/>
<stop offset="0.5" stop-color="#203E6A"/>
<stop offset="1" stop-color="#4A7499"/>
</linearGradient>
<linearGradient id="paint30_linear_7837_266" x1="-95.0937" y1="432.982" x2="415.007" y2="55.3848" gradientUnits="userSpaceOnUse">
<stop stop-color="#FF2A64"/>
<stop offset="1" stop-color="#FFAF48"/>
</linearGradient>
<linearGradient id="paint31_linear_7837_266" x1="-87.2137" y1="364.924" x2="334.861" y2="68.1008" gradientUnits="userSpaceOnUse">
<stop stop-color="#386E9C"/>
<stop offset="1" stop-color="white"/>
</linearGradient>
<linearGradient id="paint32_linear_7837_266" x1="482.529" y1="475.172" x2="645.463" y2="15.0091" gradientUnits="userSpaceOnUse">
<stop stop-color="#FF2A64"/>
<stop offset="1" stop-color="#FFAF48"/>
</linearGradient>
<linearGradient id="paint33_linear_7837_266" x1="332.258" y1="1086.27" x2="-21.756" y2="157.391" gradientUnits="userSpaceOnUse">
<stop stop-color="#FF2A64"/>
<stop offset="1" stop-color="#FFAF48"/>
</linearGradient>
<clipPath id="clip0_7837_266">
<rect width="901.594" height="1000" fill="white"/>
</clipPath>
</defs>
</svg>
