<svg width="879" height="948" viewBox="0 0 879 948" fill="none" xmlns="http://www.w3.org/2000/svg">
<g clip-path="url(#clip0_7837_106)">
<path d="M831.044 683.76H47.8168C21.3864 683.76 0 662.374 0 635.943V47.8168C0 21.3864 21.3864 0 47.8168 0H831.044C857.474 0 878.861 21.3864 878.861 47.8168V635.943C878.861 662.374 857.474 683.76 831.044 683.76Z" fill="url(#paint0_linear_7837_106)"/>
<path d="M787.06 613.35H91.7999C78.8873 613.35 68.5977 602.858 68.5977 590.147V188.648C68.5977 175.735 79.0891 165.445 91.7999 165.445H787.06C799.973 165.445 810.263 175.937 810.263 188.648V589.946C810.263 602.858 799.771 613.35 787.06 613.35Z" fill="url(#paint1_linear_7837_106)"/>
<path d="M878.861 94.0195V47.8168C878.861 21.3864 857.474 0 831.044 0H47.8168C21.3864 0 0 21.3864 0 47.8168V94.0195H878.861Z" fill="url(#paint2_linear_7837_106)"/>
<path d="M52.2559 65.5783C61.1737 65.5783 68.3966 58.3553 68.3966 49.4376C68.3966 40.5198 61.1737 33.2969 52.2559 33.2969C43.3382 33.2969 36.1152 40.5198 36.1152 49.4376C36.1152 58.3553 43.3382 65.5783 52.2559 65.5783Z" fill="url(#paint3_linear_7837_106)"/>
<path d="M109.555 65.5783C118.472 65.5783 125.695 58.3553 125.695 49.4376C125.695 40.5198 118.472 33.2969 109.555 33.2969C100.637 33.2969 93.4141 40.5198 93.4141 49.4376C93.4141 58.3553 100.637 65.5783 109.555 65.5783Z" fill="url(#paint4_linear_7837_106)"/>
<path d="M166.854 65.5783C175.771 65.5783 182.994 58.3553 182.994 49.4376C182.994 40.5198 175.771 33.2969 166.854 33.2969C157.936 33.2969 150.713 40.5198 150.713 49.4376C150.713 58.3553 157.936 65.5783 166.854 65.5783Z" fill="url(#paint5_linear_7837_106)"/>
<path d="M439.431 489.881C494.915 489.881 539.907 444.909 539.907 389.406C539.907 333.902 494.915 288.93 439.431 288.93C383.947 288.93 338.955 333.922 338.955 389.406C338.955 444.889 383.947 489.881 439.431 489.881Z" fill="url(#paint6_linear_7837_106)"/>
<path d="M414.816 359.335V419.459C414.816 424.705 420.667 428.135 425.106 425.31L474.94 395.248C479.379 392.625 479.379 386.169 474.94 383.546L425.106 353.484C420.667 350.659 414.816 354.089 414.816 359.335Z" fill="url(#paint7_linear_7837_106)"/>
<path d="M241.303 942.618L204.18 926.477V601.242L241.303 617.181V942.618Z" fill="url(#paint8_linear_7837_106)"/>
<path d="M241.303 942.61L674.68 859.485V534.25L241.303 617.173V942.61Z" fill="url(#paint9_linear_7837_106)"/>
<path d="M241.303 680.323L674.68 597.199V534.25L241.303 617.173V680.323Z" fill="url(#paint10_linear_7837_106)"/>
<path d="M307.519 603.174C306.571 602.588 305.32 602.891 304.735 603.839L260.752 675.262C260.167 676.21 260.469 677.461 261.417 678.046C261.74 678.248 262.103 678.349 262.467 678.349C263.153 678.349 263.798 678.006 264.182 677.38L308.165 605.958C308.75 605.009 308.447 603.759 307.499 603.174H307.519Z" fill="url(#paint11_linear_7837_106)"/>
<path d="M365.827 591.869C364.878 591.284 363.628 591.586 363.063 592.535L319.281 664.159C318.696 665.107 318.998 666.358 319.947 666.923C320.27 667.125 320.633 667.226 320.996 667.226C321.682 667.226 322.348 666.883 322.711 666.257L366.492 594.633C367.078 593.685 366.775 592.434 365.827 591.869Z" fill="url(#paint12_linear_7837_106)"/>
<path d="M424.338 580.775C423.389 580.19 422.139 580.493 421.553 581.441L377.57 652.863C376.985 653.812 377.288 655.063 378.236 655.648C378.559 655.849 378.922 655.95 379.285 655.95C379.971 655.95 380.617 655.607 381 654.982L424.983 583.559C425.568 582.611 425.266 581.36 424.317 580.775H424.338Z" fill="url(#paint13_linear_7837_106)"/>
<path d="M482.646 569.674C481.697 569.088 480.447 569.391 479.861 570.339L436.08 641.762C435.495 642.71 435.797 643.961 436.746 644.546C437.068 644.748 437.432 644.849 437.795 644.849C438.481 644.849 439.147 644.506 439.51 643.88L483.291 572.458C483.876 571.51 483.574 570.259 482.626 569.674H482.646Z" fill="url(#paint14_linear_7837_106)"/>
<path d="M541.156 558.58C540.208 557.995 538.957 558.297 538.372 559.246L494.388 630.668C493.803 631.616 494.106 632.867 495.054 633.452C495.377 633.654 495.74 633.755 496.103 633.755C496.789 633.755 497.435 633.412 497.818 632.787L541.802 561.364C542.387 560.416 542.084 559.165 541.136 558.58H541.156Z" fill="url(#paint15_linear_7837_106)"/>
<path d="M599.464 547.486C598.516 546.901 597.265 547.204 596.68 548.152L552.898 619.574C552.313 620.523 552.616 621.774 553.564 622.359C553.887 622.56 554.25 622.661 554.613 622.661C555.299 622.661 555.965 622.318 556.328 621.693L600.11 550.27C600.695 549.322 600.392 548.071 599.444 547.486H599.464Z" fill="url(#paint16_linear_7837_106)"/>
<path d="M657.975 536.181C657.027 535.596 655.776 535.899 655.211 536.847L611.429 608.471C610.844 609.42 611.147 610.671 612.095 611.236C612.418 611.437 612.781 611.538 613.144 611.538C613.83 611.538 614.496 611.195 614.859 610.57L658.641 538.945C659.226 537.997 658.923 536.746 657.975 536.181Z" fill="url(#paint17_linear_7837_106)"/>
<path d="M241.303 617.173L674.681 534.25L637.356 518.109L204.18 601.234L241.303 617.173Z" fill="url(#paint18_linear_7837_106)"/>
<path d="M423.289 730.171V824.796C423.289 833.068 432.368 836.699 439.631 831.252L517.914 770.926C524.774 765.68 524.774 755.592 517.914 752.566L439.631 718.267C432.368 715.241 423.289 721.899 423.289 730.171Z" fill="url(#paint19_linear_7837_106)"/>
<path d="M696.47 947.459C754.193 947.459 800.981 900.672 800.981 842.948C800.981 785.225 754.193 738.438 696.47 738.438C638.747 738.438 591.959 785.225 591.959 842.948C591.959 900.672 638.747 947.459 696.47 947.459Z" fill="url(#paint20_linear_7837_106)"/>
<path d="M715.436 842.947C715.436 853.438 706.963 861.711 696.673 861.711C686.383 861.711 677.909 853.237 677.909 842.947C677.909 832.657 686.383 824.183 696.673 824.183C706.963 824.183 715.436 832.657 715.436 842.947ZM746.709 830.438H743.077C740.454 830.438 738.033 828.824 737.226 826.201C736.016 823.78 736.621 820.955 738.437 819.139L741.06 816.517C743.481 814.095 743.481 810.06 741.06 807.639L732.182 798.762C729.761 796.341 725.726 796.341 723.305 798.762L720.682 801.385C718.866 803.2 715.84 803.806 713.621 802.595C710.998 801.788 709.384 799.367 709.384 796.542V792.911C709.384 789.481 706.559 786.656 703.129 786.656H690.62C687.19 786.656 684.366 789.481 684.366 792.911V796.542C684.366 799.165 682.752 801.586 680.129 802.393C677.708 803.604 674.883 802.999 673.067 801.183L670.444 798.56C668.023 796.139 663.988 796.139 661.567 798.56L652.69 807.437C650.268 809.859 650.268 813.894 652.69 816.315L655.312 818.938C657.128 820.753 657.733 823.78 656.523 825.999C655.716 828.42 653.295 830.236 650.672 830.236H646.839C643.409 830.236 640.584 833.061 640.584 836.491V849C640.584 852.43 643.409 855.254 646.839 855.254H650.47C653.093 855.254 655.514 856.868 656.321 859.491C657.532 861.912 656.926 864.737 655.111 866.553L652.488 869.176C650.067 871.597 650.067 875.632 652.488 878.053L661.365 886.93C663.786 889.351 667.821 889.351 670.243 886.93L672.865 884.307C674.681 882.492 677.708 881.886 679.927 883.097C682.348 883.904 684.164 886.325 684.164 888.948V892.983C684.164 896.413 686.989 899.238 690.418 899.238H702.927C706.357 899.238 709.182 896.413 709.182 892.983V889.351C709.182 886.729 710.796 884.307 713.419 883.5C715.84 882.29 718.665 882.895 720.48 884.711L723.103 887.334C725.524 889.755 729.56 889.755 731.981 887.334L740.858 878.456C743.279 876.035 743.279 872 740.858 869.579L738.235 866.956C736.419 865.14 735.814 862.114 737.025 859.895C737.832 857.474 740.253 855.658 742.876 855.658H746.911C750.341 855.658 753.165 852.833 753.165 849.403V836.692C753.165 833.263 750.341 830.438 746.709 830.438Z" fill="url(#paint21_linear_7837_106)"/>
</g>
<defs>
<linearGradient id="paint0_linear_7837_106" x1="439.43" y1="937.573" x2="439.43" y2="-788.836" gradientUnits="userSpaceOnUse">
<stop stop-color="#0A1A2C"/>
<stop offset="0.5" stop-color="#203E6A"/>
<stop offset="1" stop-color="#4A7499"/>
</linearGradient>
<linearGradient id="paint1_linear_7837_106" x1="457.831" y1="1277.92" x2="430.835" y2="-25.8825" gradientUnits="userSpaceOnUse">
<stop stop-color="#0A1A2C"/>
<stop offset="0.5" stop-color="#203E6A"/>
<stop offset="1" stop-color="#4A7499"/>
</linearGradient>
<linearGradient id="paint2_linear_7837_106" x1="442.356" y1="603.42" x2="438.2" y2="-152.731" gradientUnits="userSpaceOnUse">
<stop stop-color="#FF2A64"/>
<stop offset="1" stop-color="#FFAF48"/>
</linearGradient>
<linearGradient id="paint3_linear_7837_106" x1="50.6822" y1="440.264" x2="52.4173" y2="10.3973" gradientUnits="userSpaceOnUse">
<stop stop-color="#386E9C"/>
<stop offset="1" stop-color="white"/>
</linearGradient>
<linearGradient id="paint4_linear_7837_106" x1="107.981" y1="440.506" x2="109.716" y2="10.6192" gradientUnits="userSpaceOnUse">
<stop stop-color="#386E9C"/>
<stop offset="1" stop-color="white"/>
</linearGradient>
<linearGradient id="paint5_linear_7837_106" x1="165.26" y1="440.728" x2="167.015" y2="10.8613" gradientUnits="userSpaceOnUse">
<stop stop-color="#386E9C"/>
<stop offset="1" stop-color="white"/>
</linearGradient>
<linearGradient id="paint6_linear_7837_106" x1="437.373" y1="901.59" x2="439.774" y2="305.817" gradientUnits="userSpaceOnUse">
<stop stop-color="#386E9C"/>
<stop offset="1" stop-color="white"/>
</linearGradient>
<linearGradient id="paint7_linear_7837_106" x1="449.378" y1="613.309" x2="444.616" y2="262.995" gradientUnits="userSpaceOnUse">
<stop stop-color="#0A1A2C"/>
<stop offset="0.5" stop-color="#203E6A"/>
<stop offset="1" stop-color="#4A7499"/>
</linearGradient>
<linearGradient id="paint8_linear_7837_106" x1="217.072" y1="1321.02" x2="229.743" y2="93.4559" gradientUnits="userSpaceOnUse">
<stop stop-color="#FF2A64"/>
<stop offset="1" stop-color="#FFAF48"/>
</linearGradient>
<linearGradient id="paint9_linear_7837_106" x1="460.191" y1="1401.77" x2="456.882" y2="404.156" gradientUnits="userSpaceOnUse">
<stop stop-color="#FF2A64"/>
<stop offset="1" stop-color="#FFAF48"/>
</linearGradient>
<linearGradient id="paint10_linear_7837_106" x1="462.693" y1="1107.1" x2="456.176" y2="414.425" gradientUnits="userSpaceOnUse">
<stop stop-color="#386E9C"/>
<stop offset="1" stop-color="white"/>
</linearGradient>
<linearGradient id="paint11_linear_7837_106" x1="301.588" y1="725.237" x2="184.245" y2="145.04" gradientUnits="userSpaceOnUse">
<stop stop-color="#386E9C"/>
<stop offset="1" stop-color="white"/>
</linearGradient>
<linearGradient id="paint12_linear_7837_106" x1="359.895" y1="713.449" x2="242.532" y2="133.231" gradientUnits="userSpaceOnUse">
<stop stop-color="#386E9C"/>
<stop offset="1" stop-color="white"/>
</linearGradient>
<linearGradient id="paint13_linear_7837_106" x1="418.184" y1="701.649" x2="300.821" y2="121.451" gradientUnits="userSpaceOnUse">
<stop stop-color="#386E9C"/>
<stop offset="1" stop-color="white"/>
</linearGradient>
<linearGradient id="paint14_linear_7837_106" x1="476.452" y1="689.861" x2="359.109" y2="109.664" gradientUnits="userSpaceOnUse">
<stop stop-color="#386E9C"/>
<stop offset="1" stop-color="white"/>
</linearGradient>
<linearGradient id="paint15_linear_7837_106" x1="534.72" y1="678.081" x2="417.377" y2="97.8842" gradientUnits="userSpaceOnUse">
<stop stop-color="#386E9C"/>
<stop offset="1" stop-color="white"/>
</linearGradient>
<linearGradient id="paint16_linear_7837_106" x1="592.988" y1="666.302" x2="475.645" y2="86.1045" gradientUnits="userSpaceOnUse">
<stop stop-color="#386E9C"/>
<stop offset="1" stop-color="white"/>
</linearGradient>
<linearGradient id="paint17_linear_7837_106" x1="651.378" y1="654.493" x2="534.035" y2="74.2951" gradientUnits="userSpaceOnUse">
<stop stop-color="#386E9C"/>
<stop offset="1" stop-color="white"/>
</linearGradient>
<linearGradient id="paint18_linear_7837_106" x1="447.4" y1="1064.23" x2="438.744" y2="524.767" gradientUnits="userSpaceOnUse">
<stop stop-color="#386E9C"/>
<stop offset="1" stop-color="white"/>
</linearGradient>
<linearGradient id="paint19_linear_7837_106" x1="475.363" y1="1134.76" x2="472.478" y2="683.565" gradientUnits="userSpaceOnUse">
<stop stop-color="#386E9C"/>
<stop offset="1" stop-color="white"/>
</linearGradient>
<linearGradient id="paint20_linear_7837_106" x1="696.47" y1="1287.22" x2="696.47" y2="747.779" gradientUnits="userSpaceOnUse">
<stop stop-color="#386E9C"/>
<stop offset="1" stop-color="white"/>
</linearGradient>
<linearGradient id="paint21_linear_7837_106" x1="696.875" y1="898.559" x2="696.875" y2="778.478" gradientUnits="userSpaceOnUse">
<stop stop-color="#223C6A"/>
<stop offset="1" stop-color="#5BA8D3"/>
</linearGradient>
<clipPath id="clip0_7837_106">
<rect width="878.861" height="947.459" fill="white"/>
</clipPath>
</defs>
</svg>
